<?xml version="1.0" encoding="UTF-8"?>
<svg xmlns="http://www.w3.org/2000/svg" onmouseup="{ if(window.parent.document.onmouseup) window.parent.document.onmouseup(arguments[0]);}" viewBox="0 0 30 30" data-name="Layer 1" id="Layer_1"><defs><style>.cls-1{fill:#969696;}</style></defs><title/><path data-cppathid="10000" d="M16.63,28.8,6.77,21.49H.37v-13H6.55L16.63,1.25ZM3.37,18.49H7.76l5.87,4.35V7.11l-6.12,4.4H3.37Z" class="cls-1"/><path data-cppathid="10001" d="M20,15.5A2.5,2.5,0,0,1,18,18l2.29,2.29a5.48,5.48,0,0,0,0-9.49L18,13.05A2.49,2.49,0,0,1,20,15.5Z" class="cls-1"/><path data-cppathid="10002" d="M27,15.5a9.48,9.48,0,0,1-3.85,7.62l2.14,2.14a12.46,12.46,0,0,0,0-19.53L23.13,7.87A9.48,9.48,0,0,1,27,15.5Z" class="cls-1"/></svg>