<?xml version="1.0" encoding="UTF-8"?>
<svg xmlns="http://www.w3.org/2000/svg" onmouseup="{ if(window.parent.document.onmouseup) window.parent.document.onmouseup(arguments[0]);}" viewBox="0 0 34.01 38.34"><title/><g data-name="Layer 2" id="Layer_2"><g data-name="Layer 2" id="Layer_2-2"><path data-cppathid="10000" fill="#fff" d="M9.38,3.53V4.77A5.58,5.58,0,0,1,15,10.35H16.2A6.83,6.83,0,0,0,9.38,3.53Z"/><path data-cppathid="10001" fill="#fff" d="M18.49,10.39h1.24A10.38,10.38,0,0,0,9.34,0V1.24a9.15,9.15,0,0,1,9.15,9.15Z"/><path data-cppathid="10002" fill="#fff" d="M25.61,23.11,21.22,27.5,10.84,17.12l4.38-4.39-8.4-8.4L2,9.15A6.81,6.81,0,0,0,2,18.8L19.54,36.34a6.82,6.82,0,0,0,9.65,0L34,31.52Zm2.7,12.35a5.56,5.56,0,0,1-7.89,0L2.87,17.92a5.6,5.6,0,0,1,0-7.89l4-3.95,6.65,6.65L9.08,17.12,21.22,29.25l4.39-4.38,6.65,6.65Z"/></g></g></svg>