<?xml version="1.0" encoding="UTF-8"?>
<svg xmlns="http://www.w3.org/2000/svg" onmouseup="{ if(window.parent.document.onmouseup) window.parent.document.onmouseup(arguments[0]);}" viewBox="0 0 27.67 40.85"><title/><g data-name="Layer 2" id="Layer_2"><g data-name="Layer 2" id="Layer_2-2"><path data-cppathid="10000" fill="#fff" d="M13.84,0A13.83,13.83,0,0,0,6.59,25.61v8a7.25,7.25,0,1,0,14.49,0v-8A13.83,13.83,0,0,0,13.84,0Zm0,39.54A5.93,5.93,0,0,1,7.91,33.6V31H19.77V33.6A5.94,5.94,0,0,1,13.84,39.54ZM20.1,24.67l-.33.19v4.86H7.91V24.86l-.33-.19a12.52,12.52,0,1,1,12.52,0Z"/><path data-cppathid="10001" fill="#fff" d="M13.84,6.59a7.26,7.26,0,0,0-7.25,7.25H7.91a5.93,5.93,0,0,1,11.86,0h1.31A7.25,7.25,0,0,0,13.84,6.59Z"/></g></g></svg>