<?xml version="1.0" encoding="UTF-8"?>
<svg xmlns="http://www.w3.org/2000/svg" onmouseup="{ if(window.parent.document.onmouseup) window.parent.document.onmouseup(arguments[0]);}" viewBox="0 0 38.02 38.02"><title/><g data-name="Layer 2" id="Layer_2"><g data-name="Layer 2" id="Layer_2-2"><path data-cppathid="10000" fill="#fff" d="M31.89,15.36V6.13H22.66a6.75,6.75,0,0,0-13.44,0H0V16.56H.61a5.52,5.52,0,0,1,5.52,5.52A5.52,5.52,0,0,1,.61,27.6H0V38H10.43v-.61a5.52,5.52,0,1,1,11,0V38H31.89V28.8a6.75,6.75,0,0,0,0-13.44ZM31.28,27.6h-.62v9.2h-8a6.75,6.75,0,0,0-13.44,0h-8v-8a6.76,6.76,0,0,0,6.13-6.72,6.75,6.75,0,0,0-6.13-6.72v-8h9.2V6.75a5.52,5.52,0,1,1,11,0v.61h9.2v9.2h.62a5.52,5.52,0,0,1,0,11Z"/></g></g></svg>