<?xml version="1.0" encoding="UTF-8"?>
<svg xmlns="http://www.w3.org/2000/svg" onmouseup="{ if(window.parent.document.onmouseup) window.parent.document.onmouseup(arguments[0]);}" viewBox="0 0 29.83 42.64"><title/><g data-name="Layer 2" id="Layer_2"><g data-name="Layer 2" id="Layer_2-2"><path data-cppathid="10000" fill="#fff" d="M29.11,24.52H18.78l-2.91-8.94A14.92,14.92,0,0,0,29.82.71.71.71,0,0,0,29.11,0H.71A.71.71,0,0,0,0,.71,14.93,14.93,0,0,0,14,15.58L11,24.52H.71A.7.7,0,0,0,0,25a.69.69,0,0,0,.25.79l8.36,6.08L5.46,41.71a.71.71,0,0,0,1.09.79l8.36-6.07,8.36,6.07a.7.7,0,0,0,.84,0,.71.71,0,0,0,.26-.79l-3.2-9.83,8.36-6.08a.69.69,0,0,0,.26-.79A.71.71,0,0,0,29.11,24.52ZM1.44,1.42h27a13.49,13.49,0,0,1-26.95,0ZM19.92,31a.72.72,0,0,0-.26.8l2.68,8.24-7-5.09a.69.69,0,0,0-.84,0l-7,5.09,2.67-8.24A.69.69,0,0,0,9.9,31l-7-5.09h8.66a.72.72,0,0,0,.68-.49l2.67-8.24,2.68,8.24a.72.72,0,0,0,.67.49h8.67Z"/></g></g></svg>