<?xml version="1.0" encoding="UTF-8"?>
<svg xmlns="http://www.w3.org/2000/svg" onmouseup="{ if(window.parent.document.onmouseup) window.parent.document.onmouseup(arguments[0]);}" viewBox="0 0 28.11 41.49"><title/><g data-name="Layer 2" id="Layer_2"><g data-name="Layer 2" id="Layer_2-2"><path data-cppathid="10000" fill="#fff" d="M14.5,30.29a.66.66,0,0,0-.89,0,7.39,7.39,0,0,0,0,11,.61.61,0,0,0,.44.17.65.65,0,0,0,.45-.17,7.39,7.39,0,0,0,0-11Zm-.45,9.59a6,6,0,0,1,0-8.15,6,6,0,0,1,0,8.15Z"/><path data-cppathid="10001" fill="#fff" d="M27.91,27l-6.5-6.5V7.36a7.36,7.36,0,1,0-14.72,0V20.47L.2,27a.68.68,0,0,0-.15.73.67.67,0,0,0,.62.41H27.44a.68.68,0,0,0,.62-.41A.66.66,0,0,0,27.91,27Zm-13.19-.2v-6a.67.67,0,1,0-1.34,0v6H2.28l5.56-5.55A.7.7,0,0,0,8,20.75V7.36a6,6,0,0,1,12,0V20.75a.7.7,0,0,0,.19.47l5.55,5.55Z"/><path data-cppathid="10002" fill="#fff" d="M14.05,6.69A2.35,2.35,0,1,0,16.4,9,2.34,2.34,0,0,0,14.05,6.69Zm0,3.35a1,1,0,1,1,1-1A1,1,0,0,1,14.05,10Z"/><path data-cppathid="10003" fill="#fff" d="M14.05,13.39a2.34,2.34,0,1,0,2.35,2.34A2.34,2.34,0,0,0,14.05,13.39Zm0,3.34a1,1,0,1,1,1-1A1,1,0,0,1,14.05,16.73Z"/></g></g></svg>