<?xml version="1.0" encoding="UTF-8"?>
<svg xmlns="http://www.w3.org/2000/svg" onmouseup="{ if(window.parent.document.onmouseup) window.parent.document.onmouseup(arguments[0]);}" viewBox="0 0 40 40" data-name="Layer 1" id="Layer_1"><path data-cppathid="10000" style="fill: #fff;" d="M20,5c-8.27,0-15,6.73-15,15s6.73,15,15,15,15-6.73,15-15-6.73-15-15-15Zm0,28c-2.26,0-4.3-2.11-5.59-5.3,1.73-.45,3.63-.7,5.59-.7s3.85,.25,5.58,.71c-1.29,3.18-3.33,5.29-5.58,5.29Zm0-8c-2.17,0-4.29,.29-6.23,.81-.41-1.47-.67-3.1-.74-4.81h13.94c-.07,1.71-.33,3.33-.74,4.8-1.93-.52-4.03-.8-6.23-.8Zm5.55-12.8c-1.72,.45-3.61,.7-5.55,.7s-3.83-.24-5.55-.69c1.29-3.14,3.32-5.21,5.55-5.21s4.26,2.07,5.55,5.2Zm.18-3.86c1.28,.63,2.45,1.46,3.45,2.45-.53,.29-1.08,.55-1.68,.78-.49-1.22-1.09-2.31-1.77-3.24Zm.48,5.76c.42,1.5,.69,3.15,.77,4.9H13.03c.08-1.74,.34-3.4,.77-4.9,1.93,.52,4.04,.8,6.2,.8s4.29-.28,6.2-.79Zm-13.7-2.52c-.6-.23-1.16-.49-1.69-.78,1-1,2.17-1.82,3.45-2.46-.68,.92-1.28,2.01-1.76,3.23Zm-.63,1.89c-.48,1.68-.77,3.54-.85,5.53h-3.98c.19-2.47,1.07-4.75,2.46-6.65,.73,.42,1.52,.8,2.37,1.12Zm-.85,7.53c.07,1.95,.36,3.78,.82,5.44-.86,.33-1.66,.71-2.39,1.14-1.36-1.88-2.22-4.13-2.41-6.58h3.98Zm17.94,0h3.98c-.19,2.44-1.05,4.69-2.4,6.57-.74-.43-1.54-.82-2.39-1.15,.46-1.66,.75-3.48,.82-5.43Zm0-2c-.08-1.98-.37-3.84-.85-5.52,.84-.32,1.64-.7,2.37-1.13,1.38,1.89,2.27,4.17,2.46,6.64h-3.98ZM10.76,29.13c.53-.3,1.11-.56,1.72-.8,.5,1.26,1.1,2.38,1.8,3.32-1.31-.65-2.5-1.49-3.51-2.52Zm14.96,2.52c.7-.95,1.3-2.07,1.8-3.32,.61,.24,1.18,.51,1.71,.81-1.01,1.03-2.2,1.87-3.51,2.52Z"/></svg>