<?xml version="1.0" encoding="UTF-8"?>
<svg xmlns="http://www.w3.org/2000/svg" onmouseup="{ if(window.parent.document.onmouseup) window.parent.document.onmouseup(arguments[0]);}" viewBox="0 0 40 40" data-name="Layer 1" id="Layer_1"><path data-cppathid="10000" style="fill: #fff;" d="M31,35.01H9l-1.01-1.01V6l1.01-1.01H31l1.01,1.01v28l-1.01,1.01Zm-20.99-2.02H29.99V7.01H10.01v25.98Z"/><path data-cppathid="10001" style="fill: #fff;" d="M27,15H13v-6h14v6Zm-12-2h10v-2H15v2Z"/><rect data-cppathid="10002" style="fill: #fff;" height="2" width="2" y="18" x="13"/><rect data-cppathid="10003" style="fill: #fff;" height="2" width="2" y="18" x="19"/><rect data-cppathid="10004" style="fill: #fff;" height="2" width="2" y="18" x="25"/><rect data-cppathid="10005" style="fill: #fff;" height="2" width="2" y="23" x="13"/><rect data-cppathid="10006" style="fill: #fff;" height="2" width="2" y="23" x="19"/><rect data-cppathid="10007" style="fill: #fff;" height="2" width="2" y="23" x="25"/><rect data-cppathid="10008" style="fill: #fff;" height="2" width="2" y="28" x="25"/><rect data-cppathid="10009" style="fill: #fff;" height="2" width="8" y="28" x="13"/></svg>