<?xml version="1.0" encoding="UTF-8"?>
<svg xmlns="http://www.w3.org/2000/svg" onmouseup="{ if(window.parent.document.onmouseup) window.parent.document.onmouseup(arguments[0]);}" viewBox="0 0 40 40" data-name="Layer 1" id="Layer_1"><path data-cppathid="10000" style="fill: #fff;" d="M20.07,14.01c-3.31-.07-6.02,2.61-6.06,5.92s2.62,6.02,5.92,6.06c.02,0,.05,0,.07,0,3.27,0,5.95-2.64,5.99-5.92,.04-3.3-2.62-6.02-5.92-6.06Zm-.12,10c-2.21-.03-3.99-1.85-3.96-4.06,.03-2.2,1.82-3.96,4.01-3.96h.05c2.21,.03,3.99,1.85,3.96,4.06-.03,2.21-1.86,3.96-4.06,3.96Z"/><path data-cppathid="10001" style="fill: #fff;" d="M35.99,21.07l.03-2-4.06-.06c-.2-2.46-1.14-4.77-2.73-6.67l3.27-3.2-1.4-1.43-3.28,3.2c-1.92-1.66-4.29-2.65-6.82-2.86l.06-4.04-2-.03-.06,4.06c-2.58,.21-4.93,1.24-6.79,2.83l-3.34-3.43-1.43,1.4,3.36,3.44c-1.55,1.84-2.54,4.15-2.75,6.69l-4.04-.06-.03,2,4.06,.06c.2,2.5,1.18,4.79,2.69,6.63l-3.55,3.47,1.4,1.43,3.55-3.47c1.87,1.63,4.24,2.68,6.85,2.9l-.06,4.04,2,.03,.06-4.06c2.44-.2,4.68-1.13,6.5-2.58l3.33,3.41,1.43-1.4-3.31-3.39c1.69-1.89,2.79-4.3,3.01-6.97l4.04,.06Zm-15.98,8.93s-.08,0-.12,0c-5.51-.07-9.95-4.6-9.88-10.12,.07-5.47,4.54-9.88,10-9.88,.04,0,.08,0,.12,0,2.67,.03,5.17,1.1,7.04,3.01s2.88,4.43,2.84,7.11c-.07,5.47-4.54,9.88-10,9.88Z"/></svg>