<?xml version="1.0" encoding="UTF-8"?>
<svg xmlns="http://www.w3.org/2000/svg" onmouseup="{ if(window.parent.document.onmouseup) window.parent.document.onmouseup(arguments[0]);}" viewBox="0 0 40 40" data-name="Layer 1" id="Layer_1"><path data-cppathid="10000" style="fill: #fff;" d="M26.71,26.54l-1.41-1.41c2.73-2.73,2.85-7.13,.26-10l-.3-.33,1.49-1.34,.3,.33c3.3,3.66,3.15,9.27-.34,12.75Z"/><path data-cppathid="10001" style="fill: #fff;" d="M31.71,30.06l-1.41-1.41c4.6-4.6,4.79-11.99,.44-16.83l-.48-.53,1.49-1.34,.48,.53c5.06,5.63,4.84,14.23-.51,19.58Z"/><path data-cppathid="10002" style="fill: #fff;" d="M21.39,34.67l-9.98-7.67H5l-1-1V14l1-1h6.41l9.98-7.67,1.61,.79v27.75l-1.61,.79ZM6,25h5.75l.61,.21,8.64,6.64V8.15l-8.64,6.64-.61,.21H6v10Z"/></svg>