<?xml version="1.0" encoding="UTF-8"?>
<svg xmlns="http://www.w3.org/2000/svg" onmouseup="{ if(window.parent.document.onmouseup) window.parent.document.onmouseup(arguments[0]);}" xml:space="preserve" style="enable-background:new 0 0 40 40;" viewBox="0 0 40 40" y="0px" x="0px" id="Layer_1" version="1.1" xmlns:xlink="http://www.w3.org/1999/xlink"><style type="text/css">
	.st0{fill:#143A78;}
</style><path data-cppathid="10000" d="M20.1,14L20.1,14c-3.4,0-6,2.6-6.1,5.9c0,3.3,2.6,6,5.9,6.1H20c3.3,0,6-2.6,6-5.9l0,0C26,16.8,23.4,14,20.1,14z   M20,24L20,24c-2.3,0-4-1.8-4-4c0-2.2,1.8-4,4-4h0c2.2,0,4,1.8,4,4C24,22.2,22.2,24,20,24z" class="st0"/><path data-cppathid="10001" d="M36,21.1l0-2L32,19c-0.2-2.5-1.1-4.8-2.7-6.7l3.3-3.2l-1.4-1.4l-3.3,3.2c-1.9-1.7-4.3-2.7-6.8-2.9l0.1-4l-2,0  L19,8c-2.6,0.2-4.9,1.2-6.8,2.8L8.9,7.5L7.4,8.9l3.4,3.4C9.2,14.1,8.3,16.5,8,19l-4-0.1l0,2L8,21c0.2,2.5,1.2,4.8,2.7,6.6l-3.6,3.5  l1.4,1.4l3.6-3.5c1.9,1.6,4.2,2.7,6.9,2.9l-0.1,4l2,0L21,32c2.4-0.2,4.7-1.1,6.5-2.6l3.3,3.4l1.4-1.4L28.9,28c1.7-1.9,2.8-4.3,3-7  L36,21.1L36,21.1z M20,30c0,0-0.1,0-0.1,0c-5.5-0.1-9.9-4.6-9.9-10.1c0.1-5.5,4.5-9.9,10-9.9c0,0,0.1,0,0.1,0c2.7,0,5.2,1.1,7,3  s2.9,4.4,2.8,7.1C29.9,25.6,25.5,30,20,30z" class="st0"/></svg>