<?xml version="1.0" encoding="UTF-8"?>
<svg xmlns="http://www.w3.org/2000/svg" onmouseup="{ if(window.parent.document.onmouseup) window.parent.document.onmouseup(arguments[0]);}" xml:space="preserve" style="enable-background:new 0 0 40 40;" viewBox="0 0 40 40" y="0px" x="0px" id="Layer_1" version="1.1" xmlns:xlink="http://www.w3.org/1999/xlink"><style type="text/css">
	.st0{fill:#143A78;}
</style><path data-cppathid="10000" d="M31,35H9l-1-1V6l1-1h22l1,1v28C32,34,31,35,31,35z M10,33h20V7H10V33z" class="st0"/><path data-cppathid="10001" d="M27,15H13V9h14V15z M15,13h10v-2H15V13z" class="st0"/><rect data-cppathid="10002" height="2" width="2" class="st0" y="18" x="13"/><rect data-cppathid="10003" height="2" width="2" class="st0" y="18" x="19"/><rect data-cppathid="10004" height="2" width="2" class="st0" y="18" x="25"/><rect data-cppathid="10005" height="2" width="2" class="st0" y="23" x="13"/><rect data-cppathid="10006" height="2" width="2" class="st0" y="23" x="19"/><rect data-cppathid="10007" height="2" width="2" class="st0" y="23" x="25"/><rect data-cppathid="10008" height="2" width="8" class="st0" y="28" x="13"/><rect data-cppathid="10009" height="2" width="2" class="st0" y="28" x="25"/></svg>