<?xml version="1.0" encoding="UTF-8"?>
<svg xmlns="http://www.w3.org/2000/svg" onmouseup="{ if(window.parent.document.onmouseup) window.parent.document.onmouseup(arguments[0]);}" xml:space="preserve" style="enable-background:new 0 0 40 40;" viewBox="0 0 40 40" y="0px" x="0px" id="Layer_1" version="1.1" xmlns:xlink="http://www.w3.org/1999/xlink"><style type="text/css">
	.st0{fill:#143A78;}
</style><path data-cppathid="10000" d="M20,5C11.7,5,5,11.7,5,20s6.7,15,15,15s15-6.7,15-15S28.3,5,20,5z M20,33c-2.3,0-4.3-2.1-5.6-5.3  C16.1,27.2,18,27,20,27s3.9,0.2,5.6,0.7C24.3,30.9,22.2,33,20,33z M20,25c-2.2,0-4.3,0.3-6.2,0.8c-0.4-1.5-0.7-3.1-0.7-4.8H27  c-0.1,1.7-0.3,3.3-0.7,4.8C24.3,25.3,22.2,25,20,25z M25.5,12.2c-1.7,0.4-3.6,0.7-5.5,0.7s-3.8-0.2-5.6-0.7C15.7,9.1,17.8,7,20,7  S24.3,9.1,25.5,12.2z M25.7,8.3c1.3,0.6,2.5,1.5,3.5,2.4c-0.5,0.3-1.1,0.6-1.7,0.8C27,10.3,26.4,9.3,25.7,8.3L25.7,8.3z M26.2,14.1  c0.4,1.5,0.7,3.1,0.8,4.9H13c0.1-1.7,0.3-3.4,0.8-4.9c1.9,0.5,4,0.8,6.2,0.8S24.3,14.6,26.2,14.1L26.2,14.1z M12.5,11.6  c-0.6-0.2-1.2-0.5-1.7-0.8c1-1,2.2-1.8,3.4-2.5C13.6,9.3,13,10.4,12.5,11.6L12.5,11.6z M11.9,13.5C11.4,15.2,11.1,17,11,19H7  c0.2-2.5,1.1-4.8,2.5-6.6C10.2,12.8,11,13.2,11.9,13.5z M11,21c0.1,2,0.4,3.8,0.8,5.4c-0.9,0.3-1.7,0.7-2.4,1.1  C8.1,25.7,7.2,23.5,7,21H11z M29,21h4c-0.2,2.4-1,4.7-2.4,6.6c-0.7-0.4-1.5-0.8-2.4-1.1C28.6,24.8,28.9,22.9,29,21L29,21z M29,19  c-0.1-2-0.4-3.8-0.9-5.5c0.8-0.3,1.6-0.7,2.4-1.1c1.4,1.9,2.3,4.2,2.5,6.6L29,19L29,19z M10.8,29.1c0.5-0.3,1.1-0.6,1.7-0.8  c0.5,1.3,1.1,2.4,1.8,3.3C13,31,11.8,30.2,10.8,29.1L10.8,29.1z M25.7,31.6c0.7-1,1.3-2.1,1.8-3.3c0.6,0.2,1.2,0.5,1.7,0.8  C28.2,30.2,27,31,25.7,31.6L25.7,31.6z" class="st0"/></svg>