<?xml version="1.0" encoding="UTF-8"?>
<svg xmlns="http://www.w3.org/2000/svg" onmouseup="{ if(window.parent.document.onmouseup) window.parent.document.onmouseup(arguments[0]);}" xml:space="preserve" style="enable-background:new 0 0 40 40;" viewBox="0 0 40 40" y="0px" x="0px" id="Layer_1" version="1.1" xmlns:xlink="http://www.w3.org/1999/xlink"><style type="text/css">
	.st0{fill:#143A78;}
</style><path data-cppathid="10000" d="M26.7,26.5l-1.4-1.4c2.7-2.7,2.9-7.1,0.3-10l-0.3-0.3l1.5-1.3l0.3,0.3C30.3,17.5,30.2,23.1,26.7,26.5z" class="st0"/><path data-cppathid="10001" d="M31.7,30.1l-1.4-1.4c4.6-4.6,4.8-12,0.4-16.8l-0.5-0.5l1.5-1.3l0.5,0.5C37.3,16.1,37.1,24.7,31.7,30.1  L31.7,30.1z" class="st0"/><path data-cppathid="10002" d="M21.4,34.7l-10-7.7H5l-1-1V14l1-1h6.4l10-7.7L23,6.1v27.8L21.4,34.7L21.4,34.7z M6,25h5.8l0.6,0.2l8.6,6.6V8.1  l-8.6,6.6L11.8,15H6V25z" class="st0"/></svg>