<?xml version="1.0" encoding="UTF-8"?>
<svg xmlns="http://www.w3.org/2000/svg" onmouseup="{ if(window.parent.document.onmouseup) window.parent.document.onmouseup(arguments[0]);}" viewBox="0 0 224 224" data-name="Layer 1" id="Layer_1"><path data-cppathid="10000" style="fill: #0c774e;" d="M165.38,66.83c-1.13-28.78-24.8-51.85-53.73-51.85s-52.59,23.06-53.73,51.85c-23.33,6.24-39.85,27.55-39.85,52.16,0,28.59,22.24,52.26,50.64,53.91v-.18l.29,.28h38v35h10v-35h38l.35-.35v.19c27.98-2.01,49.89-25.67,49.89-53.85,0-24.62-16.53-45.92-39.85-52.16Zm-10.74,96.04l-.12,.13h-37.52v-14.51l24.38-24.38-7.07-7.07-17.31,17.31v-52.35h-10v24.93l-12.48-12.48-7.07,7.07,19.55,19.55v41.93h-37.63l-.08-.08c-23.11-1.34-41.21-20.63-41.21-43.92,0-21.22,15.04-39.41,35.77-43.26l4.08-5.09v-.2c-.02-.48-.04-.97-.04-1.46,0-24.26,19.63-44,43.77-44s43.77,19.74,43.77,44c0,.49-.02,.97-.04,1.46v.2l4.08,5.09c20.73,3.85,35.77,22.04,35.77,43.26,0,22.96-17.83,42.24-40.6,43.88Z"/></svg>