<?xml version="1.0" encoding="UTF-8"?>
<svg xmlns="http://www.w3.org/2000/svg" onmouseup="{ if(window.parent.document.onmouseup) window.parent.document.onmouseup(arguments[0]);}" viewBox="0 0 224 224" data-name="Layer 1" id="Layer_1"><path data-cppathid="10000" style="fill: #0c774e;" d="M164.96,63.37L115.31,16.15h-6.89L58.93,63.19c-5.66,5.38-10.22,11.3-13.56,17.62-9.5,17.93-10.68,39.04-3.25,57.91l.12,.3c10.52,26.71,35.87,43.98,64.58,43.98h.19v25h10v-25h.31c28.54,0,54.58-17.91,64.8-44.56,6.6-17.22,6.02-36.74-1.61-53.54-3.57-7.87-8.81-15.12-15.55-21.53Zm7.82,71.49c-8.75,22.81-31.04,38.13-55.47,38.13h-.31v-22.93l27.01-27.01-7.07-7.07-19.94,19.94v-53.93h-10v18.38l-10.38-10.38-7.07,7.07,17.45,17.45v58.48h-.19c-24.57,0-46.27-14.78-55.27-37.63l-.12-.3c-6.36-16.16-5.35-34.23,2.78-49.57,2.84-5.36,6.75-10.42,11.62-15.05L111.87,26.67l46.2,43.95c5.81,5.53,10.3,11.73,13.34,18.42,6.53,14.38,7.03,31.08,1.37,45.83Z"/></svg>