<?xml version="1.0" encoding="UTF-8"?>
<svg xmlns="http://www.w3.org/2000/svg" onmouseup="{ if(window.parent.document.onmouseup) window.parent.document.onmouseup(arguments[0]);}" viewBox="0 0 224 224" data-name="Layer 1" id="Layer_1"><path data-cppathid="10000" style="fill: #0c774e;" d="M169,80c-19.85,0-36,16.15-36,36,0,7.87,2.55,15.15,6.85,21.08l-22.85,22.85V85.65c17.49-2.44,31-17.49,31-35.65,0-19.85-16.15-36-36-36s-36,16.15-36,36c0,18.15,13.51,33.2,31,35.65v74.29l-22.85-22.85c4.3-5.93,6.85-13.21,6.85-21.08,0-19.85-16.15-36-36-36s-36,16.15-36,36,16.15,36,36,36c8.38,0,16.1-2.89,22.22-7.71l29.78,29.78v33.93h10v-33.93l29.78-29.78c6.12,4.82,13.84,7.71,22.22,7.71,19.85,0,36-16.15,36-36s-16.15-36-36-36Zm-114,62c-14.34,0-26-11.66-26-26s11.66-26,26-26,26,11.66,26,26c0,5.11-1.49,9.87-4.04,13.89l-12.59-12.59-7.07,7.07,12.78,12.78c-4.26,3.04-9.46,4.84-15.08,4.84Zm31-92c0-14.34,11.66-26,26-26s26,11.66,26,26c0,12.63-9.05,23.17-21,25.51v-23.51h-10v23.51c-11.95-2.34-21-12.89-21-25.51Zm83,92c-5.62,0-10.83-1.8-15.09-4.84l11.62-11.62-7.07-7.07-11.43,11.43c-2.55-4.02-4.04-8.79-4.04-13.89,0-14.34,11.66-26,26-26s26,11.66,26,26-11.66,26-26,26Z"/></svg>