<?xml version="1.0" encoding="UTF-8"?>
<svg xmlns="http://www.w3.org/2000/svg" onmouseup="{ if(window.parent.document.onmouseup) window.parent.document.onmouseup(arguments[0]);}" xml:space="preserve" style="enable-background:new 0 0 1366 768;" viewBox="0 0 1366 768" y="0px" x="0px" id="Layer_1" version="1.1" xmlns:xlink="http://www.w3.org/1999/xlink"><style type="text/css">
	.st0{display:none;}
	.st1{display:inline;}
	.st2{fill:#FFFFFF;}
</style><g class="st0" id="Layer_2_00000080196876387007433280000006732861137754651555_"><g class="st1"><path data-cppathid="10000" d="M-416.6,23c0.21,0.3,0.37,0.8,0.65,0.88c8.67,2.43,7.49,9.38,7.24,15.85c-0.03,0.87-0.35,2.13-0.97,2.49    c-1.39,0.83-3.01,1.38-4.61,1.66c-0.47,0.08-1.79-1.46-1.66-1.7c0.74-1.41,1.73-2.71,2.79-3.9c0.37-0.42,1.21-0.42,1.77-0.59    c1.12-6.48,0.33-7.95-5.5-9.32c0,1.81,0.08,3.48-0.02,5.15c-0.08,1.31,0.08,3.06-0.68,3.81c-1.19,1.18-3,1.89-4.67,2.33    c-0.51,0.14-2.15-1.64-2.03-1.86c0.77-1.41,1.8-2.72,2.93-3.88c0.49-0.5,1.42-0.58,2.36-0.93c0-3.33,0-6.66,0-9.98    C-418.2,23-417.4,23-416.6,23z"/><path data-cppathid="10001" d="M-362.88,87.28c0.23,3.3,0.29,6.24,0.66,9.14c0.46,3.58-0.85,6.18-3.72,8.19c-1.31,0.92-2.45,2.07-3.77,2.98    c-2.46,1.71-3.58,3.98-2.82,6.9c0.78,2.99,3.04,4.19,5.98,4.38c0.37,0.02,0.73,0.16,1.31,0.3c-0.58,3.46-1.55,6.83-1.63,10.22    c-0.32,13.99,5.54,25.05,16.85,33.13c3.34,2.39,7.09,4.22,10.74,6.14c4.49,2.36,6.2,6.13,4.37,10.12    c-1.8,3.94-6.02,5.4-10.49,3.38c-20.24-9.16-33.45-23.83-36.29-47.1c-5.5,1.18-9.01,4.32-10.99,9.32    c-2.72,6.84-2.16,13.88-1.09,20.92c0.42,2.76,1.17,5.47,1.75,8.21c0.95,4.5-1.17,8.31-5.23,9.44c-3.96,1.1-7.85-1.21-9.06-5.71    c-2.95-11.06-4.5-22.23-1.68-33.59c1.94-7.8,5.98-14.16,12.64-18.84c1.08-0.76,2.05-2.1,2.41-3.36c2.96-10.5,1.2-20.35-4.64-29.46    c-0.57-0.9-2.05-1.53-3.19-1.69c-3.83-0.52-7.7-0.73-11.55-1.13c-3.47-0.36-5.2-2.2-5.15-5.83c0.1-6.37,0.03-12.75,0.03-19.38    c-2.23-0.1-4.09-0.05-5.89-0.34c-0.7-0.11-1.27-1-1.9-1.53c0.55-0.59,1.04-1.64,1.65-1.71c3.35-0.41,6.31-1.08,8.5-4.19    c0.55-0.78,3.39-0.24,5.06,0.16c1.28,0.31,2.39,1.34,3.62,2.09c-0.67,6.83-1.35,13.87-2.15,22.07c7.11,0,13.43,0.48,19.64-0.15    c5.12-0.52,10.15-2.2,15.14-3.63c4.61-1.32,8.98-0.75,13.3,0.91c13.46,5.2,16.85,17.28,7.72,28.46    c-2.92,3.58-6.62,6.54-10.09,9.65c-2.47,2.21-5.22,2.88-7.73,0.05c-2.04-2.3-1.2-4.76,1.81-7.48c3.35-3.03,6.87-6,9.58-9.55    C-355.38,93.8-356.68,90.21-362.88,87.28z"/><path data-cppathid="10002" d="M-366.14,61.72c0,7.41-6.09,13.43-13.5,13.33c-7.29-0.09-13.05-5.97-13.06-13.31c-0.01-7.55,5.85-13.35,13.43-13.27    C-371.95,48.55-366.14,54.41-366.14,61.72z"/><path data-cppathid="10003" d="M-394.98,60.51c-0.35,2.94-1.75,4.92-4.94,5.12c-2.99,0.18-5.53-2.14-5.35-5.06c0.19-3.07,1.94-4.92,5.06-4.96    C-397.08,55.57-395.47,57.47-394.98,60.51z"/></g><g class="st1"><path data-cppathid="10004" d="M-66.54,302.21c0,39.24,0,78.47,0,117.71c-1.03,2.08-2.76,2.63-4.99,2.63c-41.97-0.04-83.95-0.03-125.92-0.03    c-3.63,0-4.82-1.21-4.82-4.86c0-37.73,0-75.47,0-113.2c0-0.4-0.01-0.8,0.01-1.19c0.08-1.96,1.29-3.32,3.23-3.6    c0.52-0.08,1.06-0.06,1.59-0.06c42.02,0,84.04,0.01,126.06-0.03C-69.2,299.58-67.55,300.2-66.54,302.21z M-198.26,418.44    c42.64,0,85.16,0,127.65,0c0-31.1,0-62.1,0-93.17c-0.61,0-1.13,0-1.66,0c-18.87,0-37.73,0-56.6,0c-0.49,0-0.98,0.05-1.45-0.05    c-1.08-0.22-1.75-0.88-1.69-2.03c0.05-1.13,0.72-1.77,1.84-1.88c0.44-0.05,0.88-0.02,1.32-0.02c18.91,0,37.82,0,56.73,0    c0.51,0,1.02,0,1.5,0c0-6,0-11.81,0-17.63c-42.58,0-85.07,0-127.62,0c0,5.88,0,11.69,0,17.63c0.58,0,1.1,0,1.62,0    c18.78,0,37.56,0,56.33,0c2.09,0,2.98,0.58,3,1.94c0.02,1.41-0.93,2.03-3.07,2.04c-18.78,0-37.56,0-56.33,0c-0.51,0-1.02,0-1.57,0    C-198.26,356.41-198.26,387.37-198.26,418.44z"/><path data-cppathid="10005" d="M-116.26,350.45c0.01-9.96,8.09-18.02,18.06-18.01c9.91,0.02,17.92,8.03,17.94,17.97c0.02,10-7.99,18.06-17.97,18.07    C-108.19,368.49-116.27,360.42-116.26,350.45z M-109.36,342.13c-4.36,4.71-3.7,13.44,1.24,18.31c5.41,5.33,13.94,5.43,19.51,0.23    c5.48-5.12,5.87-13.82,0.87-19.5c-4.79-5.45-13.4-6.35-19.1-1.68c0.6,0.45,1.22,0.81,1.72,1.3c1.96,1.91,3.9,3.84,5.8,5.81    c0.9,0.93,0.88,2.02,0.08,2.84c-0.76,0.78-1.92,0.79-2.85-0.02c-0.37-0.32-0.7-0.68-1.04-1.02    C-105.21,346.31-107.28,344.22-109.36,342.13z"/><path data-cppathid="10006" d="M-128.28,363.03c0-0.52,0-1.05,0-1.57c0-8.66,0-17.31,0-25.97c0-0.48-0.03-0.98,0.08-1.45c0.24-1.03,0.94-1.63,2-1.57    c1.11,0.06,1.79,0.71,1.87,1.85c0.06,0.79,0.02,1.59,0.02,2.38c0,8.35,0.01,16.69-0.01,25.04c0,0.87,0.16,1.35,1.08,1.77    c2.86,1.29,4.43,3.6,4.46,6.77c0.03,3.23-1.53,5.59-4.44,6.91c-0.91,0.41-1.1,0.89-1.1,1.77c0.02,9.72,0.01,19.43,0.01,29.15    c0,0.44,0.02,0.89-0.02,1.32c-0.09,1.07-0.69,1.72-1.75,1.82c-1.13,0.11-1.86-0.49-2.13-1.56c-0.12-0.46-0.07-0.96-0.08-1.45    c0-9.72-0.01-19.43,0.01-29.15c0-0.97-0.16-1.5-1.19-1.97c-2.83-1.27-4.32-3.64-4.34-6.72c-0.02-3.14,1.52-5.46,4.34-6.88    C-129.1,363.35-128.72,363.22-128.28,363.03z M-122.73,370.41c0.02-1.98-1.49-3.54-3.46-3.58c-2.03-0.04-3.66,1.55-3.65,3.54    c0.01,1.93,1.62,3.52,3.55,3.54C-124.34,373.92-122.76,372.36-122.73,370.41z"/><path data-cppathid="10007" d="M-142.36,359.62c0,0.62,0,1.15,0,1.68c0,15.64,0,31.28,0,46.92c0,0.49,0.05,0.99-0.05,1.45c-0.22,1.03-0.92,1.62-1.98,1.6    c-1-0.01-1.66-0.59-1.89-1.56c-0.11-0.46-0.06-0.97-0.06-1.45c0-15.69,0-31.37,0-47.06c0-0.53,0-1.05,0-1.6    c-2.72-0.97-4.6-2.69-5.31-5.5c-0.91-3.61,0.85-7.21,4.31-8.71c0.76-0.33,1.04-0.69,1.02-1.53c-0.06-2.96-0.03-5.92-0.02-8.88    c0-1.63,0.77-2.58,2.03-2.55c1.21,0.03,1.94,0.95,1.94,2.5c0.01,3,0,6.01,0,9.01c0,0.57-0.03,1.01,0.72,1.32    c3.12,1.29,4.85,3.7,4.81,7.08c-0.04,3.45-1.88,5.78-5.07,7.06C-142.03,359.48-142.15,359.53-142.36,359.62z M-144.37,348.73    c-1.94,0.01-3.54,1.6-3.55,3.54c-0.01,2,1.62,3.58,3.65,3.55c1.96-0.04,3.51-1.63,3.48-3.58    C-140.82,350.3-142.42,348.72-144.37,348.73z"/><path data-cppathid="10008" d="M-164.4,380.3c-3.39-1.31-5.46-3.58-5.53-7.24c-0.06-3.23,1.49-5.6,4.41-6.93c0.95-0.44,1.14-0.94,1.14-1.88    c-0.03-9.54-0.02-19.08-0.02-28.62c0-0.44-0.02-0.89,0.02-1.32c0.11-1.13,0.79-1.79,1.89-1.83c1.06-0.05,1.75,0.57,1.98,1.59    c0.11,0.46,0.08,0.96,0.08,1.45c0,9.58,0.01,19.17-0.02,28.75c0,0.93,0.17,1.44,1.13,1.87c2.88,1.3,4.4,3.68,4.4,6.82    s-1.54,5.5-4.41,6.82c-0.86,0.4-1.13,0.82-1.13,1.73c0.03,8.97,0.02,17.93,0.01,26.9c0,0.52-0.01,1.07-0.17,1.56    c-0.31,0.96-1.05,1.4-2.05,1.3c-1-0.11-1.6-0.71-1.72-1.71c-0.06-0.48-0.03-0.97-0.03-1.46    C-164.4,398.86-164.4,389.64-164.4,380.3z M-162.37,376.48c1.95-0.03,3.53-1.63,3.51-3.56c-0.02-1.92-1.65-3.53-3.57-3.54    c-1.98-0.01-3.59,1.65-3.55,3.66C-165.93,375-164.35,376.51-162.37,376.48z"/><path data-cppathid="10009" d="M-178.49,359.07c0,7.99,0.01,15.99-0.02,23.98c0,0.8,0.19,1.23,0.99,1.58c2.95,1.31,4.5,3.66,4.5,6.88    c0,3.17-1.56,5.48-4.42,6.8c-0.83,0.39-1.08,0.8-1.06,1.66c0.05,3,0.04,6.01,0.01,9.01c-0.02,1.56-0.96,2.48-2.26,2.28    c-1.21-0.18-1.7-0.99-1.7-2.15c0-3.05-0.04-6.1,0.02-9.14c0.02-0.88-0.26-1.27-1.08-1.64c-2.85-1.32-4.43-3.59-4.46-6.78    c-0.02-3.18,1.48-5.52,4.34-6.84c1-0.46,1.19-1.02,1.19-1.99c-0.02-15.59-0.02-31.18-0.02-46.77c0-0.31,0-0.62,0-0.93    c0.02-1.65,0.76-2.59,2-2.56s1.97,0.96,1.97,2.63C-178.49,343.08-178.49,351.07-178.49,359.07z M-176.98,391.42    c-0.03-1.95-1.64-3.52-3.58-3.48c-1.95,0.04-3.48,1.64-3.45,3.6c0.03,1.97,1.6,3.49,3.57,3.46    C-178.5,394.97-176.95,393.38-176.98,391.42z"/><path data-cppathid="10010" d="M-84.32,380.35c-2.99,0-5.9,0-8.81,0c-0.48,0-0.98,0.02-1.45-0.08c-1.1-0.22-1.72-0.91-1.65-2.05    c0.07-1.13,0.75-1.81,1.89-1.82c3.71-0.03,7.42-0.05,11.13,0.02c1.61,0.03,2.86,1.27,2.91,2.89c0.08,3,0.09,6.01,0,9.01    c-0.05,1.77-1.4,2.95-3.26,2.97c-2.87,0.04-5.74,0.02-8.61,0.02c-6.71,0-13.43,0-20.14,0c-2.74,0-3.94-1.2-3.96-3.96    c-0.02-2.39-0.02-4.77,0-7.16c0.03-2.61,1.23-3.79,3.83-3.81c2.83-0.01,5.65-0.01,8.48,0c1.62,0.01,2.45,0.68,2.45,1.94    c0.01,1.26-0.84,2.01-2.42,2.02c-2.73,0.03-5.47,0.01-8.29,0.01c0,2.35,0,4.58,0,6.89c9.29,0,18.54,0,27.89,0    C-84.32,385.01-84.32,382.78-84.32,380.35z"/><path data-cppathid="10011" d="M-108.72,397.1c1.37,0,2.73-0.03,4.1,0.01c2.01,0.05,3.33,1.32,3.38,3.3c0.05,2.25,0.05,4.5,0,6.74    c-0.04,1.94-1.3,3.23-3.25,3.27c-2.82,0.06-5.64,0.06-8.46,0c-1.9-0.04-3.16-1.24-3.23-3.14c-0.09-2.33-0.09-4.67,0-7    c0.08-1.93,1.41-3.09,3.37-3.17c0.09,0,0.18,0,0.26,0C-111.28,397.1-110,397.1-108.72,397.1z M-105.31,406.39    c0-1.86,0-3.55,0-5.21c-2.36,0-4.62,0-6.85,0c0,1.8,0,3.49,0,5.21C-109.82,406.39-107.59,406.39-105.31,406.39z"/><path data-cppathid="10012" d="M-87.76,410.43c-1.41,0-2.83,0.04-4.24-0.01c-1.9-0.07-3.18-1.27-3.24-3.15c-0.07-2.34-0.08-4.68,0-7.02    c0.06-1.86,1.38-3.09,3.27-3.12c2.78-0.04,5.57-0.05,8.35,0c2,0.03,3.28,1.34,3.32,3.36c0.04,2.21,0.05,4.42,0,6.63    c-0.04,2.02-1.31,3.25-3.36,3.32C-85.02,410.47-86.39,410.43-87.76,410.43L-87.76,410.43z M-84.3,401.18c-2.41,0-4.67,0-6.89,0    c0,1.8,0,3.49,0,5.16c2.37,0,4.62,0,6.89,0C-84.3,404.57-84.3,402.91-84.3,401.18z"/><path data-cppathid="10013" d="M-142.37,312.16c0.02,1.05-0.82,1.95-1.88,2c-1.13,0.05-2.06-0.81-2.08-1.92c-0.02-1.1,0.92-2.04,2.01-2.03    C-143.28,310.22-142.39,311.11-142.37,312.16z"/><path data-cppathid="10014" d="M-178.52,312.16c0.02,1.05-0.83,1.94-1.88,1.99c-1.14,0.05-2.03-0.79-2.05-1.93c-0.01-1.12,0.89-2.04,1.98-2.02    C-179.44,310.22-178.54,311.13-178.52,312.16z"/><path data-cppathid="10015" d="M-164.39,312.16c0.01-1.06,0.87-1.94,1.92-1.96c1.08-0.02,2.05,0.93,2.03,2.01c-0.02,1.1-0.96,1.98-2.08,1.94    C-163.59,314.11-164.4,313.24-164.39,312.16z"/><path data-cppathid="10016" d="M-124.31,312.23c-0.02,1.13-0.92,1.98-2.06,1.92c-1.05-0.05-1.91-0.95-1.88-1.99c0.02-1.02,0.94-1.94,1.96-1.95    C-125.21,310.19-124.3,311.12-124.31,312.23z"/></g><g class="st1"><path data-cppathid="10017" d="M-446.07,423.26c-0.18,0.89-0.34,1.69-0.51,2.57c-3.77,0-7.36,0-11.16,0c-0.24-0.83-0.49-1.7-0.73-2.54    c-6.91-0.46-9.84-2.23-11.09-6.8c-0.31-1.14-0.38-2.37-0.38-3.56c-0.02-32.61-0.02-65.22-0.01-97.82    c0-6.58,3.53-10.13,10.11-10.14c9.52-0.02,19.04,0.04,28.56-0.07c1.07-0.01,2.13-0.91,3.2-1.38c1.04-0.46,2.05-1.02,3.13-1.33    c2.66-0.76,5.56-0.97,7.99-2.17c10.53-5.23,20.78-4.88,31.07,0.62c1.64,0.88,3.65,1.26,5.53,1.46c1.97,0.21,3.89-0.07,5.02,2.21    c0.26,0.52,1.7,0.63,2.6,0.63c9.52,0.04,19.04,0.01,28.56,0.03c6.57,0.01,10.13,3.56,10.13,10.14c0.01,31.95,0.01,63.9,0.01,95.85    c0,9.12-2.4,11.72-11.54,12.33c-0.17,0.76-0.34,1.57-0.55,2.5c-3.75,0-7.43,0-11.3,0c-0.17-0.84-0.33-1.64-0.5-2.53    C-387.27,423.26-416.47,423.26-446.07,423.26z M-339.96,331.53c0-5.23,0-10.23,0-15.24c0-5.1-0.31-5.42-5.37-5.42    c-37.82,0-75.64,0-113.46,0c-0.77,0-1.73-0.28-2.25,0.07c-1.12,0.76-2.81,1.82-2.86,2.82c-0.27,5.86-0.13,11.73-0.13,17.76    C-422.63,331.53-381.57,331.53-339.96,331.53z M-412.13,304.7c6.81,0,13.2,0,20.15,0C-398.98,301.13-405.38,301.28-412.13,304.7z     M-402.2,368.75c-1.28,1.96-2.69,3.17-2.56,4.19c0.14,1.07,1.75,1.95,2.71,2.92c0.99-1.05,2.58-2,2.77-3.18    C-399.12,371.78-400.75,370.59-402.2,368.75z M-437.7,377.08c1.47-1.83,3.11-3,2.97-3.89c-0.19-1.19-1.76-2.15-2.74-3.21    c-0.98,0.95-2.6,1.82-2.74,2.89C-440.35,373.88-438.95,375.11-437.7,377.08z M-348.98,412.54c1.43-1.85,3.05-3.05,2.89-3.95    c-0.2-1.18-1.8-2.12-2.8-3.16c-0.96,0.97-2.57,1.87-2.69,2.94C-351.7,409.39-350.28,410.59-348.98,412.54z M-362.39,408.53    c-1.85-1.44-2.95-2.94-3.98-2.9c-1.07,0.05-2.08,1.59-3.12,2.47c0.97,1.07,1.79,2.73,2.95,3.02    C-365.65,411.34-364.34,409.82-362.39,408.53z M-384.45,404.19c-1.29,1.96-2.8,3.28-2.58,4.16c0.3,1.16,1.95,1.98,3.02,2.94    c0.88-1.04,2.42-2.05,2.47-3.13C-381.49,407.14-383.01,406.05-384.45,404.19z M-455.13,359.37c1.34-1.93,2.89-3.22,2.68-4.1    c-0.27-1.17-1.91-2.02-2.96-3.01c-0.91,1.02-2.46,2-2.53,3.07C-458,356.35-456.52,357.48-455.13,359.37z M-437.59,359.37    c1.42-1.87,3.03-3.08,2.86-3.97c-0.22-1.18-1.82-2.1-2.82-3.14c-0.95,0.98-2.55,1.89-2.67,2.96    C-440.33,356.23-438.9,357.42-437.59,359.37z M-419.59,359.36c1.29-1.94,2.82-3.26,2.6-4.15c-0.28-1.16-1.95-1.98-3.02-2.95    c-0.89,1.04-2.42,2.05-2.47,3.13C-422.53,356.41-421.02,357.51-419.59,359.36z M-397.83,355.11c-1.93-1.33-3.11-2.78-4.13-2.68    c-1.07,0.1-1.99,1.7-2.98,2.64c1.02,1.01,1.93,2.62,3.11,2.85C-400.95,358.1-399.72,356.51-397.83,355.11z M-384.32,359.37    c1.38-1.9,2.86-3.03,2.79-4.07c-0.07-1.07-1.65-2.04-2.56-3.05c-1.04,1-2.67,1.86-2.93,3.03    C-387.22,356.18-385.67,357.45-384.32,359.37z M-362.38,355.23c-1.89-1.38-3.02-2.86-4.06-2.79c-1.07,0.07-2.04,1.64-3.05,2.56    c0.99,1.04,1.86,2.68,3.03,2.94C-365.57,358.13-364.3,356.58-362.38,355.23z M-344.69,355.66c-1.73-1.57-2.71-3.17-3.74-3.2    c-1.08-0.03-2.21,1.43-3.32,2.24c0.89,1.14,1.59,2.85,2.73,3.23C-348.15,358.22-346.72,356.8-344.69,355.66z M-397.83,408.33    c-1.92-1.35-3.09-2.8-4.11-2.71c-1.07,0.1-2,1.68-3,2.62c1.01,1.02,1.91,2.64,3.08,2.88    C-400.97,411.29-399.73,409.71-397.83,408.33z M-415.56,408.41c-1.9-1.38-3.03-2.86-4.06-2.79c-1.07,0.08-2.04,1.65-3.05,2.56    c1,1.04,1.86,2.68,3.03,2.93C-418.75,411.31-417.48,409.76-415.56,408.41z M-437.38,404.19c-1.4,1.87-2.89,2.99-2.83,4.03    c0.06,1.07,1.62,2.06,2.52,3.08c1.05-0.98,2.7-1.83,2.97-3C-434.51,407.42-436.05,406.13-437.38,404.19z M-455.04,412.54    c1.3-1.95,2.82-3.27,2.6-4.15c-0.29-1.16-1.95-1.98-3.02-2.95c-0.89,1.04-2.42,2.05-2.47,3.13    C-457.98,409.59-456.47,410.69-455.04,412.54z M-344.69,391.11c-1.73-1.57-2.71-3.17-3.74-3.2c-1.08-0.03-2.21,1.43-3.32,2.24    c0.89,1.14,1.59,2.85,2.73,3.23C-348.15,393.67-346.72,392.25-344.69,391.11z M-366.49,394.82c1.34-1.93,2.89-3.22,2.68-4.1    c-0.27-1.17-1.91-2.02-2.96-3.01c-0.91,1.02-2.46,2-2.53,3.07C-369.37,391.81-367.89,392.93-366.49,394.82z M-455.34,377.09    c1.43-1.85,3.05-3.05,2.89-3.95c-0.2-1.18-1.8-2.12-2.8-3.16c-0.96,0.97-2.57,1.87-2.69,2.94    C-458.06,373.94-456.64,375.14-455.34,377.09z M-384.22,394.83c1.33-1.93,2.78-3.1,2.68-4.13c-0.1-1.07-1.7-2-2.64-2.99    c-1.02,1.02-2.63,1.93-2.86,3.1C-387.2,391.7-385.62,392.93-384.22,394.83z M-419.86,368.74c-1.31,1.94-2.74,3.13-2.63,4.15    c0.12,1.07,1.72,1.98,2.67,2.96c1.01-1.03,2.61-1.96,2.82-3.14C-416.83,371.83-418.44,370.61-419.86,368.74z M-402.1,386.46    c-1.33,1.93-2.77,3.11-2.66,4.13c0.11,1.07,1.7,1.99,2.64,2.98c1.01-1.02,2.62-1.94,2.85-3.11    C-399.1,389.58-400.69,388.35-402.1,386.46z M-380.11,373.04c-1.86-1.42-2.97-2.92-4-2.87c-1.07,0.06-2.07,1.6-3.1,2.5    c0.97,1.06,1.81,2.72,2.97,3C-383.36,375.88-382.05,374.35-380.11,373.04z M-362.39,372.76c-1.95-1.29-3.16-2.71-4.18-2.59    c-1.07,0.13-1.96,1.74-2.92,2.7c1.04,0.99,1.98,2.58,3.16,2.79C-365.44,375.81-364.24,374.2-362.39,372.76z M-348.96,377.09    c1.42-1.86,3.02-3.07,2.86-3.98c-0.21-1.18-1.82-2.1-2.82-3.14c-0.95,0.98-2.55,1.89-2.67,2.96    C-351.7,373.96-350.26,375.15-348.96,377.09z M-419.55,386.48c-1.45,1.84-2.97,2.92-2.93,3.94c0.04,1.08,1.57,2.1,2.44,3.15    c1.08-0.96,2.75-1.76,3.05-2.92C-416.76,389.77-418.27,388.44-419.55,386.48z M-437.63,386.47c-1.29,1.95-2.71,3.16-2.58,4.18    c0.13,1.07,1.74,1.96,2.7,2.93c0.99-1.04,2.58-1.99,2.79-3.17C-434.57,389.52-436.19,388.32-437.63,386.47z M-451.02,390.48    c-1.95-1.29-3.16-2.71-4.18-2.59c-1.07,0.13-1.96,1.74-2.92,2.7c1.04,0.99,1.98,2.58,3.16,2.79    C-454.07,393.54-452.87,391.92-451.02,390.48z M-389.04,381.98c-1.74-1.45-2.93-3.15-3.84-3.02c-1.2,0.18-2.19,1.81-3.27,2.81    c0.98,1,1.87,2.68,2.95,2.82C-392.16,384.73-390.93,383.25-389.04,381.98z M-375.24,385.91c1.27-1.89,2.85-3.24,2.62-4.13    c-0.3-1.18-2-2.01-3.1-2.99c-0.9,1.07-2.48,2.12-2.51,3.21C-378.25,383.05-376.68,384.14-375.24,385.91z M-353.58,381.68    c-1.86-1.32-3.17-2.92-4.07-2.71c-1.19,0.28-2.05,1.97-3.05,3.05c1.05,0.93,2.07,2.53,3.16,2.59    C-356.49,384.65-355.37,383.08-353.58,381.68z M-406.75,381.79c-1.82-1.37-3.09-3.01-3.99-2.83c-1.2,0.24-2.1,1.91-3.13,2.96    c1.02,0.96,2,2.58,3.09,2.67C-409.75,384.68-408.58,383.15-406.75,381.79z M-406.76,346.29c-1.83-1.34-3.01-2.87-4.05-2.78    c-1.09,0.09-2.05,1.72-3.07,2.68c1.04,1.05,1.95,2.71,3.15,2.95C-409.83,349.32-408.57,347.67-406.76,346.29z M-446.46,385.91    c1.41-1.79,2.98-2.9,2.94-3.95c-0.05-1.1-1.64-2.13-2.55-3.19c-1.09,1-2.78,1.85-3.06,3.03    C-449.35,382.71-447.76,384.03-446.46,385.91z M-428.7,342.2c-1.31,1.86-2.91,3.18-2.7,4.08c0.28,1.19,1.96,2.06,3.04,3.06    c0.92-1.06,2.52-2.08,2.57-3.18C-425.75,345.11-427.3,343.99-428.7,342.2z M-446.39,350.46c1.39-1.81,2.93-2.94,2.87-3.99    c-0.06-1.1-1.66-2.11-2.59-3.16c-1.07,1.01-2.75,1.89-3.02,3.09C-449.33,347.3-447.72,348.6-446.39,350.46z M-357.87,359.93    c-1.28,1.88-2.85,3.23-2.63,4.12c0.29,1.18,2,2.01,3.1,3c0.9-1.07,2.49-2.12,2.52-3.21    C-354.86,362.79-356.44,361.69-357.87,359.93z M-375.55,368.18c1.41-1.78,2.98-2.89,2.94-3.94c-0.04-1.1-1.63-2.13-2.55-3.19    c-1.09,1-2.78,1.85-3.06,3.04C-378.44,364.98-376.85,366.31-375.55,368.18z M-446.48,395.38c-1.29,1.88-2.87,3.22-2.65,4.11    c0.29,1.18,1.99,2.02,3.08,3.01c0.91-1.07,2.49-2.11,2.53-3.2C-443.49,398.25-445.06,397.15-446.48,395.38z M-428.79,403.63    c1.43-1.75,3.02-2.84,2.99-3.89c-0.02-1.09-1.61-2.15-2.51-3.22c-1.1,0.98-2.81,1.8-3.11,2.98    C-431.63,400.39-430.06,401.74-428.79,403.63z M-406.76,399.52c-1.82-1.36-2.97-2.9-4.01-2.83c-1.09,0.08-2.08,1.7-3.11,2.65    c1.03,1.06,1.92,2.73,3.12,2.98C-409.86,402.51-408.58,400.87-406.76,399.52z M-393.25,395.38c-1.31,1.86-2.91,3.18-2.7,4.08    c0.28,1.19,1.96,2.06,3.04,3.06c0.92-1.06,2.52-2.08,2.57-3.18C-390.29,398.29-391.85,397.17-393.25,395.38z M-371.31,399.47    c-1.83-1.34-3.13-2.97-4.02-2.77c-1.2,0.26-2.08,1.94-3.1,3.01c1.04,0.94,2.03,2.55,3.13,2.62    C-374.26,402.39-373.11,400.84-371.31,399.47z M-357.55,395.38c-1.42,1.77-2.99,2.87-2.96,3.93c0.04,1.09,1.63,2.14,2.54,3.2    c1.09-0.99,2.79-1.83,3.08-3.02C-354.67,398.59-356.26,397.26-357.55,395.38z M-389.03,363.99c-1.84-1.33-3.15-2.95-4.04-2.75    c-1.19,0.27-2.07,1.95-3.08,3.03c1.04,0.93,2.05,2.54,3.14,2.61C-391.97,366.93-390.83,365.38-389.03,363.99z M-406.77,364.21    c-1.76-1.42-2.86-3-3.91-2.97c-1.09,0.04-2.13,1.63-3.19,2.54c0.99,1.1,1.82,2.8,3.01,3.09    C-409.97,367.09-408.63,365.5-406.77,364.21z M-428.51,359.92c-1.4,1.8-2.95,2.92-2.9,3.97c0.06,1.1,1.65,2.12,2.58,3.17    c1.08-1.01,2.76-1.88,3.03-3.07C-425.59,363.1-427.2,361.78-428.51,359.92z M-442.21,364.02c-1.83-1.34-3.01-2.87-4.05-2.78    c-1.09,0.09-2.05,1.72-3.07,2.68c1.04,1.05,1.95,2.71,3.15,2.95C-445.28,367.05-444.02,365.39-442.21,364.02z M-353.58,346.42    c-1.79-1.4-2.91-2.97-3.95-2.91c-1.1,0.05-2.11,1.66-3.17,2.58c1,1.08,1.87,2.77,3.06,3.05    C-356.75,349.35-355.43,347.74-353.58,346.42z M-371.31,346.35c-1.81-1.37-2.96-2.91-4-2.84c-1.09,0.07-2.08,1.69-3.12,2.63    c1.02,1.07,1.91,2.74,3.11,3C-374.42,349.33-373.14,347.7-371.31,346.35z M-389.03,346.34c-1.82-1.36-2.97-2.9-4.01-2.83    c-1.09,0.08-2.08,1.7-3.11,2.65c1.03,1.06,1.92,2.73,3.12,2.98C-392.14,349.33-390.86,347.69-389.03,346.34z M-424.49,381.98    c-1.74-1.45-2.93-3.15-3.84-3.02c-1.2,0.18-2.19,1.81-3.27,2.81c0.98,1,1.87,2.68,2.95,2.82    C-427.62,384.73-426.38,383.25-424.49,381.98z"/><path data-cppathid="10018" d="M-378.55,321.16c0.03,2.51-1.74,4.31-4.27,4.32c-2.51,0.01-4.38-1.8-4.41-4.26c-0.02-2.23,2.12-4.4,4.37-4.42    C-380.44,316.76-378.58,318.65-378.55,321.16z"/><path data-cppathid="10019" d="M-353.18,325.48c-2.54,0.04-4.41-1.69-4.5-4.17c-0.08-2.22,2.03-4.45,4.28-4.51c2.38-0.07,4.33,1.83,4.4,4.29    C-348.93,323.61-350.66,325.44-353.18,325.48z"/><path data-cppathid="10020" d="M-450.66,316.79c2.23,0.05,4.35,2.26,4.32,4.5c-0.03,2.39-1.99,4.22-4.49,4.19c-2.53-0.03-4.24-1.82-4.18-4.38    C-454.97,318.62-453.06,316.73-450.66,316.79z"/><path data-cppathid="10021" d="M-397.57,316.79c2.24,0,4.39,2.14,4.41,4.4c0.03,2.37-1.93,4.27-4.4,4.28c-2.54,0.02-4.28-1.73-4.27-4.29    C-401.83,318.68-400,316.79-397.57,316.79z"/><path data-cppathid="10022" d="M-367.99,325.48c-2.55,0.03-4.3-1.7-4.31-4.25c-0.01-2.52,1.79-4.41,4.23-4.43c2.23-0.02,4.4,2.11,4.45,4.37    C-363.57,323.52-365.52,325.45-367.99,325.48z"/><path data-cppathid="10023" d="M-440.19,316.93c1.8,0,3.5,0,5.44,0c0,2.74,0,5.49,0,8.4c-1.8,0-3.51,0-5.44,0    C-440.19,322.59-440.19,319.83-440.19,316.93z"/><path data-cppathid="10024" d="M-422.89,325.37c-1.91,0-3.61,0-5.51,0c0-2.79,0-5.46,0-8.36c1.76,0,3.53,0,5.51,0    C-422.89,319.66-422.89,322.33-422.89,325.37z"/><path data-cppathid="10025" d="M-416.6,316.91c1.96,0,3.66,0,5.54,0c0,2.79,0,5.45,0,8.35c-1.81,0-3.58,0-5.54,0    C-416.6,322.55-416.6,319.88-416.6,316.91z"/></g><path data-cppathid="10026" d="M-334.05,652.42c-0.55,2.61-0.97,5.25-1.69,7.81c-1.35,4.82-3.77,9.1-6.98,12.94   c-1.16,1.38-2.32,1.64-3.37,0.76c-1.02-0.85-0.98-2.1,0.13-3.47c10.28-12.76,10.26-29.49-0.06-42.33c-1.04-1.3-1.07-2.52-0.09-3.37   c1.05-0.91,2.21-0.69,3.38,0.7c4.73,5.68,7.54,12.19,8.43,19.53c0.05,0.41,0.18,0.81,0.27,1.22   C-334.05,648.28-334.05,650.35-334.05,652.42z" class="st1"/><path data-cppathid="10027" d="M-449.89,624.18c0-17.6-0.01-35.2,0.01-52.8c0.01-7.47,4.02-13.31,10.79-15.52c1.67-0.55,3.5-0.82,5.26-0.83   c18.35-0.06,36.71-0.06,55.06-0.03c9.14,0.02,15.97,6.88,15.97,16.01c0.02,35.29,0.02,70.59,0.01,105.88   c0,9.75-6.76,16.46-16.53,16.46c-12.85,0.01-25.69,0-38.54,0c-0.47,0-0.96,0.05-1.41-0.05c-1.08-0.24-1.74-0.94-1.74-2.08   c0.01-1.15,0.68-1.83,1.77-2.06c0.45-0.09,0.94-0.04,1.41-0.04c13.04,0,26.07,0.02,39.11-0.01c5.76-0.01,10.37-3.76,11.49-9.33   c0.19-0.96,0.21-1.96,0.21-2.95c0-35.25,0-70.49-0.01-105.74c0-6.89-4.93-11.86-11.81-11.86c-18.31-0.02-36.61-0.02-54.92,0   c-6.89,0.01-11.86,4.92-11.86,11.82c-0.02,35.39-0.02,70.78,0,106.17c0,6.99,4.96,11.86,11.94,11.9c1.55,0.01,3.11-0.02,4.66,0.01   c1.41,0.03,2.34,0.89,2.34,2.1c0,1.21-0.93,2.16-2.33,2.1c-3.04-0.12-6.17,0.04-9.11-0.6c-6.72-1.47-11.63-7.61-11.69-14.49   c-0.12-14.26-0.05-28.52-0.06-42.78C-449.89,631.71-449.89,627.95-449.89,624.18z" class="st1"/><path data-cppathid="10028" d="M-405.6,621.18c15.7,0.61,28.03,13.64,27.4,28.96c-0.64,15.69-13.64,27.92-29.04,27.34   c-15.54-0.59-27.86-13.68-27.26-28.97C-433.88,632.9-420.87,620.59-405.6,621.18z M-406.96,625.41   c-13.35,0.52-23.81,11.56-23.3,24.6c0.52,13.3,11.61,23.74,24.68,23.23c13.21-0.52,23.69-11.65,23.16-24.61   C-382.97,635.36-394.01,624.91-406.96,625.41z" class="st1"/><path data-cppathid="10029" d="M-406.38,611.45c-10.77-0.02-19.69-8.55-20.24-19.37c-0.53-10.56,7.42-19.96,17.99-21.02   c8.47-0.85,15,2.53,19.65,9.62c0.68,1.04,0.91,2.09-0.04,3.08c-1.03,1.08-2.57,0.75-3.5-0.77c-2.45-3.97-5.92-6.49-10.47-7.52   c-8.62-1.96-17.53,3.95-19.11,12.67c-1.63,8.94,4.44,17.58,13.24,18.83c9.3,1.32,17.25-4.72,18.44-14.02   c0.05-0.42,0.09-0.84,0.15-1.26c0.19-1.35,1.02-2.08,2.26-1.99c1.18,0.08,2.09,1.01,1.92,2.32c-0.25,1.99-0.51,4.04-1.16,5.92   C-390.04,606.04-397.82,611.46-406.38,611.45z" class="st1"/><path data-cppathid="10030" d="M-478.65,648.93c0.15-8.67,3.02-16.69,8.84-23.62c1.2-1.44,2.8-1.46,3.64-0.09c0.67,1.1,0.25,2.04-0.5,2.94   c-3.82,4.57-6.28,9.78-7.23,15.67c-1.57,9.73,0.8,18.44,6.83,26.19c0.26,0.33,0.56,0.64,0.79,0.99c0.68,1.02,0.54,2.2-0.32,2.92   c-0.89,0.74-2.09,0.71-2.9-0.24c-1.07-1.25-2.08-2.56-2.98-3.92C-476.58,663.56-478.58,656.71-478.65,648.93z" class="st1"/><path data-cppathid="10031" d="M-336.11,591.3c0.04,7-2.77,13.72-8.21,19.36c-1,1.03-2.23,1.07-3.12,0.2c-0.93-0.9-0.89-2.09,0.2-3.24   c3.24-3.43,5.52-7.37,6.41-12.03c1.5-7.82-0.79-14.57-5.99-20.45c-0.25-0.28-0.53-0.53-0.76-0.83c-0.74-0.99-0.66-2.17,0.22-2.91   c0.93-0.77,1.93-0.79,2.8,0.04c0.81,0.78,1.56,1.63,2.26,2.51C-338.47,578.77-336.37,584.26-336.11,591.3z" class="st1"/><path data-cppathid="10032" d="M-466.68,570.54c0.69,0.51,1.52,0.83,1.77,1.4c0.27,0.62,0.17,1.54-0.07,2.22c-0.2,0.57-0.83,0.99-1.27,1.49   c-8.18,9.46-8,22.32,0.44,31.53c0.25,0.28,0.53,0.54,0.76,0.84c0.74,1,0.67,2.17-0.22,2.91c-0.93,0.77-1.95,0.8-2.8-0.05   c-0.97-0.96-1.88-1.98-2.7-3.07c-8.36-10.98-7.45-25.94,2.17-35.85C-468.1,571.45-467.44,571.09-466.68,570.54z" class="st1"/><path data-cppathid="10033" d="M-470.18,649.32c0.1-6.7,2.18-12.67,6.31-17.92c0.26-0.33,0.53-0.67,0.83-0.96c0.87-0.83,1.84-0.9,2.81-0.19   c0.92,0.68,1.07,1.88,0.39,2.9c-0.21,0.31-0.48,0.58-0.71,0.88c-7.2,9.1-7.18,21.6,0.05,30.66c0.23,0.29,0.5,0.57,0.7,0.89   c0.63,1.02,0.54,2.02-0.39,2.78c-0.92,0.76-1.93,0.71-2.8-0.12c-0.51-0.48-0.93-1.06-1.36-1.62   C-468.21,661.49-470.1,655.69-470.18,649.32z" class="st1"/><path data-cppathid="10034" d="M-342.51,649.26c-0.09,6.74-2.17,12.76-6.35,18.03c-0.32,0.4-0.64,0.83-1.05,1.13   c-0.85,0.62-1.78,0.62-2.6-0.07c-0.81-0.68-1.01-1.57-0.51-2.54c0.19-0.37,0.48-0.7,0.74-1.03c7.35-9.19,7.37-21.7,0.05-30.89   c-0.29-0.37-0.62-0.72-0.82-1.14c-0.48-0.97-0.31-2.01,0.61-2.47c0.68-0.34,1.66-0.24,2.46-0.09c0.41,0.08,0.75,0.68,1.07,1.08   C-344.72,636.56-342.62,642.56-342.51,649.26z" class="st1"/><path data-cppathid="10035" d="M-406.31,599.33c-4.48,0.02-8.19-3.65-8.21-8.13s3.66-8.2,8.13-8.22c4.47-0.02,8.19,3.67,8.21,8.14   C-398.15,595.6-401.83,599.31-406.31,599.33z M-402.41,591.14c-0.01-2.15-1.85-3.95-3.99-3.91c-2.1,0.04-3.85,1.8-3.87,3.89   c-0.03,2.15,1.77,3.97,3.92,3.97C-404.2,595.09-402.4,593.29-402.41,591.14z" class="st1"/><path data-cppathid="10036" d="M-343.74,591.19c-0.13,5.81-2.25,10.79-6.25,14.98c-0.99,1.04-2.23,1.16-3.13,0.37   c-0.96-0.83-0.99-2.13,0.03-3.24c2.73-2.94,4.53-6.32,4.97-10.36c0.56-5.08-1.11-9.43-4.36-13.26c-0.21-0.25-0.45-0.48-0.67-0.73   c-0.92-1.1-0.93-2.3-0.03-3.14c0.88-0.83,2.15-0.75,3.13,0.27C-345.99,580.3-343.85,585.33-343.74,591.19z" class="st1"/><path data-cppathid="10037" d="M-460.78,574.93c0.68,0.58,1.52,0.95,1.69,1.51c0.2,0.7,0.08,1.69-0.31,2.32c-0.97,1.59-2.36,2.95-3.23,4.59   c-3.36,6.27-2.44,13.51,2.28,19.05c0.27,0.32,0.57,0.62,0.84,0.95c0.91,1.08,0.93,2.34,0.06,3.15c-0.87,0.82-2.16,0.74-3.13-0.26   c-2.71-2.78-4.67-6.02-5.59-9.8c-1.87-7.69,0.11-14.4,5.43-20.17C-462.27,575.76-461.56,575.46-460.78,574.93z" class="st1"/><path data-cppathid="10038" d="M-461.7,649.32c0.08-4.81,1.59-9.11,4.64-12.86c0.99-1.22,2.15-1.48,3.17-0.73c1.08,0.79,1.14,2.01,0.16,3.33   c-5,6.74-5,13.81-0.01,20.52c0.98,1.32,0.93,2.54-0.15,3.33c-1.03,0.76-2.17,0.52-3.17-0.72   C-460.11,658.45-461.62,654.15-461.7,649.32z" class="st1"/><path data-cppathid="10039" d="M-350.98,649.31c-0.08,4.84-1.6,9.14-4.64,12.89c-1.04,1.28-2.25,1.5-3.28,0.63c-0.99-0.83-1-1.95-0.04-3.24   c4.99-6.68,4.99-13.82,0-20.52c-0.98-1.32-0.93-2.53,0.15-3.33c1.02-0.75,2.19-0.49,3.17,0.72   C-352.58,640.21-351.07,644.51-350.98,649.31z" class="st1"/><path data-cppathid="10040" d="M-461.23,591c0.06-4.04,1.57-7.48,4.3-10.42c1.07-1.15,2.25-1.28,3.21-0.39c0.95,0.87,0.92,2.04-0.09,3.24   c-4.32,5.1-4.31,10.32,0.03,15.49c1,1.2,1.02,2.38,0.04,3.24c-0.94,0.83-2.1,0.72-3.11-0.34   C-459.71,598.78-461.25,595.2-461.23,591z" class="st1"/><path data-cppathid="10041" d="M-351.37,591.2c-0.04,3.94-1.52,7.55-4.38,10.58c-1.02,1.08-2.15,1.2-3.1,0.39c-0.97-0.83-1.01-2.11-0.01-3.23   c3.07-3.44,4.15-7.32,2.44-11.7c-0.53-1.36-1.51-2.58-2.39-3.77c-0.92-1.24-1.04-2.4-0.12-3.26c0.99-0.93,2.16-0.78,3.3,0.46   C-352.93,583.57-351.5,587-351.37,591.2z" class="st1"/><path data-cppathid="10042" d="M-406.38,629.11c11.1-0.04,20.2,9.01,20.27,20.15c0.07,11.12-9.13,20.34-20.27,20.31   c-11.1-0.03-20.19-9.14-20.2-20.24C-426.58,638.22-417.51,629.14-406.38,629.11z M-406.17,633.36c-8.68-0.2-15.96,6.92-16.16,15.8   c-0.19,8.65,7.01,16.02,15.82,16.17c8.69,0.15,16-7.01,16.16-15.83C-390.19,640.79-397.28,633.56-406.17,633.36z" class="st1"/><path data-cppathid="10043" d="M-406.41,641.61c4.3-0.03,7.73,3.33,7.78,7.62c0.05,4.34-3.4,7.83-7.73,7.83c-4.27,0-7.7-3.42-7.71-7.7   C-414.08,645.07-410.69,641.64-406.41,641.61z M-402.87,649.36c0.02-1.97-1.47-3.49-3.44-3.51s-3.49,1.47-3.51,3.43   c-0.02,1.97,1.48,3.5,3.44,3.52C-404.42,652.83-402.89,651.32-402.87,649.36z" class="st1"/><g class="st1"><path data-cppathid="10044" d="M-105.98,623.63c5.09-0.95,9.57-3.13,13.39-6.6c6.28-5.72,9.4-12.88,9.55-21.35c0.04-2.49,1.69-4.52,3.98-4.92    c2.38-0.42,4.69,0.85,5.5,3.11c0.23,0.64,0.34,1.37,0.31,2.05c-0.57,15.82-7.95,27.32-21.98,34.58c-0.72,0.37-1,0.72-1,1.55    c0.03,8.14,0.02,16.27,0.02,24.41c0,0.39,0,0.78,0,1.24c-10.1,0-20.1,0-30.22,0c0-0.43,0-0.82,0-1.21    c0-8.14-0.01-16.27,0.02-24.41c0-0.8-0.22-1.19-0.97-1.57c-12.83-6.44-20.13-16.79-21.83-31.06c-0.15-1.25-0.19-2.52-0.18-3.78    c0.01-2.83,2.12-4.97,4.87-4.99c2.74-0.01,4.88,2.11,4.92,4.94c0.09,7.3,2.47,13.73,7.33,19.19c4.03,4.53,9.05,7.42,14.96,8.76    c0.22,0.05,0.45,0.07,0.71,0.04c-3.29-1.52-5.77-3.84-7.28-7.13c-1.51-3.31-1.72-6.72-0.64-10.19c1.87-6,7.51-9.97,13.77-9.72    c6.18,0.25,11.52,4.66,12.95,10.71C-96.42,613.21-98.87,620.27-105.98,623.63z"/><path data-cppathid="10045" d="M-54.24,623.59c3.51-0.63,6.77-1.9,9.72-3.88c8.24-5.53,12.53-13.3,13.06-23.19c0.04-0.73,0.01-1.48,0.18-2.17    c0.61-2.45,2.9-3.95,5.44-3.63c2.38,0.3,4.25,2.39,4.18,4.93c-0.45,15.86-7.72,27.46-21.82,34.75c-0.85,0.44-1.19,0.86-1.18,1.85    c0.05,8.04,0.03,16.07,0.03,24.11c0,0.42,0,0.85,0,1.34c-10.09,0-20.07,0-30.19,0c0-0.39,0-0.77,0-1.16    c0-8.17-0.01-16.34,0.02-24.51c0-0.76-0.18-1.16-0.92-1.5c-3.07-1.38-5.88-3.21-8.4-5.37c2.09-2.5,4.17-4.99,6.31-7.55    c3.62,2.97,7.8,5.09,12.56,5.98c-8.19-4.14-9.34-12.25-7.73-17.25c1.93-5.96,7.45-9.94,13.66-9.77    c6.15,0.17,11.44,4.45,13.02,10.47C-44.95,612.19-46.44,619.73-54.24,623.59z"/><path data-cppathid="10046" d="M-168.5,623.63c-7.85-4.03-9.28-11.78-7.72-17.08c1.77-6,7.23-10.05,13.48-9.99c6.14,0.06,11.57,4.32,13.17,10.27    c1.54,5.73-0.49,13.1-7.78,16.84c1.1-0.3,2.23-0.55,3.31-0.93c1.13-0.39,2.24-0.84,3.31-1.37c1.07-0.52,2.11-1.12,3.12-1.76    c1-0.64,1.95-1.37,2.82-1.99c2.07,2.49,4.13,4.95,6.33,7.59c-0.1,0.07-0.33,0.23-0.58,0.38c-2.55,1.61-5.07,3.27-7.66,4.8    c-0.77,0.45-1.14,0.83-1.13,1.78c0.04,8.1,0.03,16.21,0.03,24.31c0,0.36,0,0.72,0,1.17c-10.07,0-20.07,0-30.25,0    c0-0.35,0-0.73,0-1.11c0-8.2-0.01-16.4,0.02-24.61c0-0.74-0.24-1.08-0.89-1.41c-14.1-7.23-21.5-18.76-22.04-34.62    c-0.1-3.04,2-5.22,4.79-5.23c2.88-0.01,4.91,2.13,4.95,5.21c0.18,13.39,9.19,24.63,22.16,27.65    C-168.89,623.58-168.7,623.6-168.5,623.63z"/><path data-cppathid="10047" d="M-92.7,614.85c-2.65-4.62-4.25-9.44-4.84-14.58c-0.17-1.45-0.24-2.91-0.27-4.37c-0.06-2.96,2.03-5.2,4.82-5.23    c2.82-0.03,4.94,2.13,4.97,5.09c0.03,2.98,0.48,5.88,1.38,8.72c0.1,0.32,0.17,0.74,0.06,1.04    C-87.93,609.04-89.95,612.12-92.7,614.85z"/><path data-cppathid="10048" d="M-130.07,615.05c-1.45-1.97-2.8-3.79-4.12-5.63c-0.27-0.37-0.43-0.82-0.68-1.21c-1.09-1.73-1.36-3.42-0.72-5.51    c0.67-2.18,0.79-4.56,0.92-6.87c0.17-2.98,2.13-5.16,4.93-5.16c2.8,0,4.88,2.19,4.86,5.18c-0.04,6.35-1.5,12.35-4.49,17.96    C-129.53,614.13-129.72,614.45-130.07,615.05z"/></g><g class="st1"><path data-cppathid="10049" d="M-91.99,64.5c-0.27,6.62-2.44,12.39-6.72,17.4c-1.53,1.79-3.21,2.58-5.55,1.86c-17.57-5.35-28.88-16.82-33.91-34.49    c-0.48-1.69,0.17-2.92,1.35-4.04c14.22-13.51,38.24-6.97,43.55,11.91C-92.6,59.53-92.4,62.05-91.99,64.5z"/><path data-cppathid="10050" d="M-149.18,69.8c3.95,14.84,12.68,22.01,25.23,25.19c-2.64,2.2-5.12,4.29-7.63,6.34c-9.13,7.45-18.28,14.88-27.38,22.36    c-0.99,0.82-1.79,1.01-3,0.5c-7.74-3.24-13.24-8.68-16.32-16.49c-0.27-0.69-0.18-1.89,0.27-2.44    C-168.51,93.49-158.93,81.77-149.18,69.8z M-144.98,93.07c-0.52-0.62-0.93-1.55-1.49-1.65c-0.76-0.14-1.87,0.1-2.43,0.62    c-2.41,2.22-4.68,4.59-6.99,6.92c-0.95,0.96-1.3,2.02-0.19,3.08c1.11,1.06,2.13,0.62,3.08-0.33c2.27-2.28,4.55-4.53,6.8-6.83    C-145.77,94.42-145.49,93.82-144.98,93.07z"/><path data-cppathid="10051" d="M-189.8,140.04c-1.48,1.9-3.08,3.66-4.33,5.64c-1.62,2.56-1.01,4.06,1.84,5.19c2.67,1.06,5.47,1.3,8.1,0.16    c4.75-2.06,9.63-3.98,14.04-6.63c16.2-9.76,36.61-7.48,49.36,6.21c3.55,3.81,6.2,8.47,9.14,12.82c1.1,1.63,0.58,3.4-0.88,4.28    c-1.5,0.91-3.32,0.37-4.36-1.33c-3.1-5.05-6.2-10.08-10.77-14.03c-10.44-9.02-25.78-10.4-37.81-3.64    c-5.25,2.95-10.73,5.56-16.29,7.88c-4.69,1.95-9.56,1.58-14.15-0.75c-4.67-2.37-6.49-6.67-4.26-11.38    c1.49-3.15,3.82-5.9,5.93-9.07c-0.3-0.53-1-1.48-1.43-2.54c-0.93-2.28-0.82-4.64,0.67-6.59c4.05-5.25,8.26-10.38,12.47-15.64    c3.97,7.74,8.19,12.83,17.73,17.79c-3.36,2.75-6.66,5.45-9.96,8.14c-1.07,0.87-2.16,1.73-3.22,2.61    C-182.32,142.78-184.57,143.01-189.8,140.04z"/><path data-cppathid="10052" d="M-141.95,52.67c6.14,17.38,17.73,29.05,34.95,35.1c-5.86,4.57-19.21,4.63-28.53-2.97    C-144.84,77.22-147.86,62.6-141.95,52.67z"/></g><path data-cppathid="10053" d="M-310.05,102.82c0.7-2.14,2.2-2.89,4.4-2.91c24.37-0.19,48.73-0.43,73.1-0.66c0.35,0,0.7-0.01,1.27-0.01   c-0.36-0.37-0.59-0.61-0.82-0.84c-3.87-3.79-7.75-7.58-11.63-11.36c-1.05-1.03-1.41-2.26-1.01-3.65c0.37-1.29,1.27-2.12,2.58-2.44   c1.36-0.33,2.49,0.12,3.47,1.08c4.34,4.24,8.69,8.48,13.03,12.72c1.61,1.57,3.26,3.11,4.81,4.74c0.7,0.73,1.2,1.65,1.79,2.48   c0,0.47,0.01,0.95,0.01,1.42c-0.58,0.84-1.04,1.79-1.74,2.51c-5.79,5.93-11.63,11.82-17.45,17.72c-1.56,1.57-3.59,1.74-5.08,0.43   c-1.59-1.39-1.66-3.69-0.11-5.27c3.79-3.87,7.6-7.72,11.41-11.57c0.22-0.23,0.51-0.39,0.77-0.58c-0.05-0.09-0.09-0.18-0.14-0.27   c-0.34,0-0.67,0.01-1.01,0.01c-24.39,0.23-48.79,0.44-73.18,0.71c-2.2,0.02-3.72-0.7-4.46-2.83   C-310.04,103.77-310.05,103.29-310.05,102.82z" class="st1"/><path data-cppathid="10054" d="M-133.7,188.8c2.13,0.72,2.87,2.23,2.87,4.43c-0.04,24.37-0.02,48.73-0.02,73.1c0,0.35,0,0.7,0,1.27   c0.37-0.35,0.61-0.58,0.85-0.82c3.82-3.84,7.65-7.68,11.47-11.52c1.04-1.04,2.27-1.39,3.66-0.97c1.29,0.38,2.11,1.29,2.41,2.61   c0.31,1.36-0.15,2.49-1.12,3.46c-4.28,4.3-8.56,8.61-12.84,12.91c-1.59,1.6-3.14,3.23-4.78,4.76c-0.74,0.69-1.66,1.18-2.5,1.77   c-0.47,0-0.95,0-1.42,0c-0.84-0.58-1.78-1.06-2.5-1.77c-5.88-5.85-11.71-11.74-17.55-17.62c-1.56-1.57-1.7-3.61-0.39-5.09   c1.41-1.58,3.71-1.63,5.27-0.06c3.83,3.83,7.65,7.67,11.47,11.52c0.23,0.23,0.39,0.52,0.58,0.78c0.09-0.05,0.18-0.09,0.28-0.14   c0-0.34,0-0.67,0-1.01c0-24.4,0.01-48.79-0.02-73.19c0-2.2,0.74-3.71,2.87-4.43C-134.65,188.8-134.17,188.8-133.7,188.8z" class="st1"/><path data-cppathid="10055" d="M-405.99,446.8c2.13,0.72,2.87,2.23,2.87,4.43c-0.04,24.37-0.02,48.73-0.02,73.1c0,0.35,0,0.7,0,1.27   c0.37-0.35,0.61-0.58,0.85-0.82c3.82-3.84,7.65-7.68,11.47-11.52c1.04-1.04,2.27-1.39,3.66-0.97c1.29,0.38,2.11,1.29,2.41,2.61   c0.31,1.36-0.15,2.49-1.12,3.46c-4.28,4.3-8.56,8.61-12.84,12.91c-1.59,1.6-3.14,3.23-4.78,4.76c-0.74,0.69-1.66,1.18-2.5,1.77   c-0.47,0-0.95,0-1.42,0c-0.84-0.58-1.78-1.06-2.5-1.77c-5.88-5.85-11.71-11.74-17.55-17.62c-1.56-1.57-1.7-3.61-0.39-5.09   c1.41-1.58,3.71-1.63,5.27-0.06c3.83,3.83,7.65,7.67,11.47,11.52c0.23,0.23,0.39,0.52,0.58,0.78c0.09-0.05,0.18-0.09,0.28-0.14   c0-0.34,0-0.67,0-1.01c0-24.4,0.01-48.79-0.02-73.19c0-2.2,0.74-3.71,2.87-4.43C-406.94,446.8-406.47,446.8-405.99,446.8z" class="st1"/><path data-cppathid="10056" d="M-219.05,361.77c-0.72,2.13-2.23,2.87-4.43,2.87c-24.37-0.04-48.73-0.02-73.1-0.02c-0.35,0-0.7,0-1.27,0   c0.35,0.37,0.58,0.61,0.82,0.85c3.84,3.82,7.68,7.65,11.52,11.47c1.04,1.04,1.39,2.27,0.97,3.66c-0.38,1.29-1.29,2.11-2.61,2.41   c-1.36,0.31-2.49-0.15-3.46-1.12c-4.3-4.28-8.61-8.56-12.91-12.84c-1.6-1.59-3.23-3.14-4.76-4.78c-0.69-0.74-1.18-1.66-1.77-2.5   c0-0.47,0-0.95,0-1.42c0.58-0.84,1.06-1.78,1.77-2.5c5.85-5.88,11.74-11.71,17.62-17.55c1.57-1.56,3.61-1.7,5.09-0.39   c1.58,1.41,1.63,3.71,0.06,5.27c-3.83,3.83-7.67,7.65-11.52,11.47c-0.23,0.23-0.52,0.39-0.78,0.58c0.05,0.09,0.09,0.18,0.14,0.28   c0.34,0,0.67,0,1.01,0c24.4,0,48.79,0.01,73.19-0.02c2.2,0,3.71,0.74,4.43,2.87C-219.05,360.83-219.05,361.3-219.05,361.77z" class="st1"/><path data-cppathid="10057" d="M-310.05,624.11c0.7-2.14,2.2-2.89,4.4-2.91c24.37-0.19,48.73-0.43,73.1-0.66c0.35,0,0.7-0.01,1.27-0.01   c-0.36-0.37-0.59-0.61-0.82-0.84c-3.87-3.79-7.75-7.58-11.63-11.36c-1.05-1.03-1.41-2.26-1.01-3.65c0.37-1.29,1.27-2.12,2.58-2.44   c1.36-0.33,2.49,0.12,3.47,1.08c4.34,4.24,8.69,8.48,13.03,12.72c1.61,1.57,3.26,3.11,4.81,4.74c0.7,0.73,1.2,1.65,1.79,2.48   c0,0.47,0.01,0.95,0.01,1.42c-0.58,0.84-1.04,1.79-1.74,2.51c-5.79,5.93-11.63,11.82-17.45,17.72c-1.56,1.57-3.59,1.74-5.08,0.43   c-1.59-1.39-1.66-3.69-0.11-5.27c3.79-3.87,7.6-7.72,11.41-11.57c0.22-0.23,0.51-0.39,0.77-0.58c-0.05-0.09-0.09-0.18-0.14-0.27   c-0.34,0-0.67,0.01-1.01,0.01c-24.39,0.23-48.79,0.44-73.18,0.71c-2.2,0.02-3.72-0.7-4.46-2.83   C-310.04,625.06-310.05,624.58-310.05,624.11z" class="st1"/></g><g class="st0" id="Layer_4"><g class="st1"><path data-cppathid="10058" d="M537.68,45c0.84,1.18,1.46,3.14,2.54,3.44c34.02,9.54,29.41,36.81,28.43,62.22c-0.13,3.41-1.39,8.36-3.79,9.78    c-5.46,3.24-11.83,5.43-18.1,6.52c-1.86,0.32-7.03-5.74-6.53-6.68c2.92-5.52,6.77-10.65,10.96-15.33    c1.47-1.64,4.76-1.65,6.94-2.32c4.42-25.46,1.29-31.19-21.59-36.6c0,7.1,0.3,13.68-0.1,20.22c-0.31,5.14,0.3,12.03-2.66,14.94    c-4.68,4.62-11.77,7.4-18.32,9.15c-2,0.53-8.45-6.43-7.98-7.3c3.02-5.54,7.06-10.67,11.49-15.23c1.92-1.97,5.56-2.27,9.27-3.64    c0-13.09,0-26.14,0-39.2C531.39,45,534.54,45,537.68,45z"/><path data-cppathid="10059" d="M748.59,297.37c0.89,12.95,1.14,24.49,2.61,35.88c1.81,14.04-3.33,24.25-14.62,32.14c-5.14,3.59-9.64,8.11-14.79,11.69    c-9.67,6.71-14.05,15.63-11.08,27.08c3.05,11.75,11.95,16.47,23.46,17.21c1.44,0.09,2.86,0.63,5.15,1.17    c-2.26,13.57-6.09,26.81-6.4,40.13c-1.25,54.94,21.77,98.33,66.14,130.08c13.1,9.37,27.83,16.58,42.16,24.12    c17.63,9.27,24.33,24.06,17.16,39.75c-7.07,15.48-23.63,21.2-41.18,13.26c-79.47-35.95-131.33-93.57-142.48-184.91    c-21.58,4.64-35.37,16.95-43.17,36.59c-10.66,26.86-8.46,54.51-4.29,82.12c1.64,10.84,4.59,21.48,6.86,32.22    c3.74,17.67-4.59,32.63-20.55,37.05c-15.53,4.3-30.84-4.74-35.56-22.41c-11.59-43.42-17.66-87.26-6.58-131.87    c7.6-30.64,23.49-55.59,49.62-73.95c4.23-2.97,8.07-8.26,9.47-13.21c11.63-41.23,4.7-79.89-18.22-115.66    c-2.25-3.52-8.06-6.02-12.54-6.62c-15.04-2.04-30.24-2.88-45.35-4.43c-13.63-1.4-20.43-8.65-20.21-22.88    c0.38-25.02,0.11-50.04,0.11-76.09c-8.75-0.4-16.04-0.19-23.12-1.33c-2.73-0.44-4.98-3.92-7.44-6.02    c2.15-2.34,4.09-6.42,6.49-6.72c13.15-1.61,24.77-4.23,33.37-16.47c2.15-3.06,13.3-0.94,19.88,0.63c5.03,1.2,9.37,5.28,14.22,8.2    c-2.62,26.83-5.31,54.45-8.45,86.66c27.93,0,52.74,1.88,77.12-0.58c20.1-2.03,39.84-8.64,59.44-14.27    c18.08-5.19,35.26-2.96,52.23,3.59c52.86,20.41,66.14,67.83,30.3,111.75c-11.47,14.06-26,25.69-39.62,37.9    c-9.68,8.68-20.5,11.32-30.34,0.2c-7.99-9.03-4.72-18.68,7.12-29.38c13.15-11.88,26.96-23.56,37.62-37.51    C778.02,322.97,772.92,308.85,748.59,297.37z"/><path data-cppathid="10060" d="M735.78,197.01c0.01,29.08-23.92,52.72-53.01,52.35c-28.61-0.36-51.23-23.42-51.27-52.26    c-0.04-29.66,22.99-52.4,52.74-52.09C712.96,145.31,735.77,168.33,735.78,197.01z"/><path data-cppathid="10061" d="M622.56,192.28c-1.38,11.55-6.89,19.32-19.41,20.09c-11.75,0.73-21.71-8.41-21.02-19.85    c0.73-12.05,7.61-19.33,19.86-19.49C614.33,172.86,620.62,180.35,622.56,192.28z"/></g></g><g class="st0" id="Layer_5"><g class="st1"><path data-cppathid="10062" d="M928.59,196.26c-1.2,29.82-10.99,55.78-30.27,78.36c-6.87,8.05-14.45,11.6-24.99,8.4    c-79.13-24.08-130.08-75.77-152.74-155.36c-2.17-7.63,0.76-13.17,6.08-18.21c64.04-60.85,172.25-31.38,196.16,53.66    C925.85,173.85,926.72,185.19,928.59,196.26z"/><path data-cppathid="10063" d="M671.02,220.09c17.79,66.82,57.13,99.13,113.63,113.47c-11.91,9.91-23.04,19.34-34.34,28.57    c-41.1,33.58-82.31,67.01-123.3,100.72c-4.48,3.68-8.08,4.53-13.53,2.25c-34.87-14.58-59.65-39.1-73.52-74.27    c-1.22-3.1-0.79-8.52,1.2-10.98C583.95,326.8,627.08,274.01,671.02,220.09z M689.93,324.91c-2.35-2.77-4.2-6.96-6.72-7.42    c-3.43-0.63-8.43,0.46-10.94,2.78c-10.85,9.99-21.07,20.68-31.47,31.17c-4.28,4.31-5.88,9.08-0.87,13.86    c5.02,4.79,9.61,2.79,13.86-1.48c10.2-10.26,20.51-20.42,30.62-30.78C686.38,331.01,687.65,328.32,689.93,324.91z"/><path data-cppathid="10064" d="M488.07,536.45c-6.67,8.57-13.86,16.49-19.5,25.39c-7.32,11.54-4.55,18.28,8.27,23.36c12.04,4.77,24.62,5.85,36.47,0.72    c21.4-9.27,43.37-17.9,63.24-29.88c72.95-43.96,164.89-33.7,222.32,27.95c15.98,17.15,27.94,38.14,41.15,57.76    c4.96,7.36,2.6,15.33-3.98,19.3c-6.77,4.08-14.95,1.66-19.62-5.98c-13.94-22.77-27.94-45.41-48.5-63.17    c-47.03-40.62-116.12-46.82-170.31-16.39c-23.66,13.28-48.32,25.05-73.37,35.49c-21.1,8.8-43.04,7.12-63.74-3.37    c-21.03-10.66-29.22-30.05-19.19-51.27c6.71-14.18,17.2-26.58,26.72-40.86c-1.37-2.38-4.51-6.67-6.45-11.44    c-4.19-10.28-3.72-20.92,3.03-29.66c18.25-23.66,37.22-46.77,56.18-70.44c17.87,34.85,36.88,57.77,79.83,80.14    c-15.14,12.38-30,24.54-44.86,36.68c-4.82,3.94-9.73,7.78-14.5,11.78C521.77,548.82,511.63,549.82,488.07,536.45z"/><path data-cppathid="10065" d="M703.55,142.96c27.67,78.29,79.87,130.86,157.43,158.1c-26.37,20.58-86.53,20.84-128.51-13.37    C690.56,253.54,676.97,187.7,703.55,142.96z"/></g></g><g class="st0" id="Layer_6"><g class="st1"><path data-cppathid="10066" d="M501.21,637.34c-0.74,3.7-1.4,7.02-2.13,10.66c-15.66,0-30.57,0-46.33,0c-0.98-3.43-2.03-7.07-3.03-10.54    c-28.7-1.91-40.84-9.26-46.04-28.23c-1.29-4.72-1.57-9.83-1.58-14.76c-0.08-135.35-0.08-270.7-0.05-406.06    c0.01-27.3,14.67-42.03,41.99-42.09c39.52-0.09,79.03,0.17,118.54-0.29c4.45-0.05,8.84-3.77,13.28-5.74    c4.3-1.91,8.49-4.24,12.98-5.53c11.03-3.16,23.1-4.02,33.15-9.01c43.7-21.72,86.26-20.25,128.96,2.57    c6.82,3.65,15.15,5.24,22.96,6.07c8.18,0.87,16.16-0.28,20.85,9.17c1.07,2.16,7.06,2.61,10.79,2.63    c39.51,0.18,79.03,0.06,118.55,0.13c27.29,0.05,42.05,14.76,42.06,42.09c0.05,132.63,0.02,265.25,0.02,397.88    c0,37.84-9.98,48.67-47.91,51.2c-0.69,3.14-1.42,6.5-2.26,10.36c-15.57,0-30.85,0-46.9,0c-0.69-3.49-1.35-6.81-2.09-10.5    C745.27,637.34,624.09,637.34,501.21,637.34z M941.65,256.57c0-21.71,0.01-42.48,0-63.26c-0.01-21.18-1.3-22.49-22.28-22.49    c-156.99-0.01-313.97,0-470.96,0c-3.18,0-7.18-1.18-9.36,0.31c-4.64,3.16-11.68,7.55-11.87,11.71    c-1.12,24.31-0.55,48.7-0.55,73.74C598.51,256.57,768.94,256.57,941.65,256.57z M642.08,145.21c28.28,0,54.81,0,83.64,0    C696.68,130.38,670.1,131.01,642.08,145.21z M683.32,411.05c-5.31,8.13-11.17,13.17-10.64,17.39c0.56,4.44,7.25,8.11,11.26,12.12    c4.11-4.36,10.69-8.29,11.51-13.2C696.08,423.65,689.35,418.7,683.32,411.05z M535.97,445.64c6.11-7.58,12.9-12.45,12.32-16.16    c-0.78-4.92-7.31-8.94-11.38-13.34c-4.05,3.96-10.79,7.56-11.39,11.99C524.95,432.36,530.76,437.46,535.97,445.64z M904.21,592.84    c5.94-7.67,12.64-12.66,12-16.41c-0.83-4.89-7.47-8.79-11.62-13.11c-3.98,4.03-10.65,7.75-11.17,12.19    C892.93,579.75,898.84,584.74,904.21,592.84z M848.58,576.17c-7.7-5.96-12.24-12.22-16.51-12.04c-4.46,0.19-8.65,6.59-12.95,10.27    c4.01,4.44,7.41,11.32,12.24,12.53C835.01,587.85,840.48,581.54,848.58,576.17z M757,558.19c-5.36,8.13-11.64,13.62-10.71,17.26    c1.23,4.83,8.11,8.21,12.55,12.22c3.67-4.32,10.04-8.53,10.24-13C769.26,570.41,762.99,565.88,757,558.19z M463.62,372.12    c5.56-8.01,11.99-13.35,11.14-17.02c-1.12-4.85-7.93-8.4-12.29-12.5c-3.76,4.23-10.23,8.29-10.52,12.75    C451.68,359.61,457.82,364.28,463.62,372.12z M536.42,372.1c5.91-7.75,12.57-12.8,11.89-16.5c-0.9-4.9-7.54-8.74-11.71-13.03    c-3.95,4.06-10.6,7.83-11.09,12.27C525.04,359.09,530.98,364.04,536.42,372.1z M611.14,372.09c5.36-8.06,11.69-13.53,10.79-17.23    c-1.18-4.82-8.1-8.23-12.54-12.24c-3.68,4.31-10.05,8.5-10.25,12.97C598.94,359.85,605.19,364.39,611.14,372.09z M701.44,354.45    c-8.02-5.53-12.91-11.53-17.16-11.11c-4.44,0.44-8.27,7.06-12.36,10.97c4.25,4.21,8.02,10.89,12.89,11.83    C688.52,366.87,693.63,360.27,701.44,354.45z M757.52,372.14c5.74-7.87,11.87-12.59,11.57-16.88c-0.3-4.44-6.83-8.46-10.63-12.67    c-4.32,4.13-11.1,7.73-12.17,12.58C745.48,358.86,751.92,364.15,757.52,372.14z M848.61,354.95    c-7.84-5.74-12.55-11.87-16.85-11.59c-4.43,0.29-8.45,6.82-12.66,10.61c4.13,4.33,7.71,11.12,12.56,12.2    C835.35,366.99,840.64,360.54,848.61,354.95z M922.02,356.71c-7.17-6.51-11.23-13.14-15.51-13.28c-4.48-0.15-9.17,5.95-13.76,9.31    c3.7,4.73,6.6,11.84,11.34,13.42C907.67,367.34,913.6,361.44,922.02,356.71z M701.44,575.35c-7.97-5.59-12.81-11.63-17.07-11.25    c-4.44,0.4-8.32,6.99-12.45,10.87c4.21,4.25,7.93,10.96,12.8,11.94C688.42,587.65,693.59,581.1,701.44,575.35z M627.86,575.68    c-7.88-5.75-12.6-11.87-16.86-11.57c-4.44,0.32-8.45,6.83-12.65,10.63c4.13,4.33,7.73,11.11,12.58,12.18    C614.62,587.73,619.9,581.28,627.86,575.68z M537.27,558.17c-5.8,7.78-11.98,12.43-11.73,16.72c0.26,4.45,6.72,8.55,10.47,12.8    c4.38-4.09,11.21-7.6,12.34-12.45C549.2,571.57,542.8,566.2,537.27,558.17z M463.98,592.84c5.39-8.11,11.71-13.58,10.79-17.22    c-1.22-4.83-8.1-8.23-12.55-12.25c-3.68,4.31-10.05,8.5-10.25,12.97C451.78,580.59,458.03,585.14,463.98,592.84z M922.02,503.87    c-7.18-6.52-11.25-13.15-15.51-13.28c-4.49-0.13-9.17,5.95-13.76,9.31c3.7,4.73,6.6,11.84,11.34,13.42    C907.67,514.51,913.6,508.61,922.02,503.87z M831.53,519.29c5.56-8.01,11.99-13.35,11.14-17.02c-1.12-4.85-7.93-8.4-12.29-12.5    c-3.76,4.23-10.23,8.29-10.52,12.75C819.59,506.77,825.74,511.45,831.53,519.29z M462.71,445.67c5.94-7.67,12.64-12.66,12-16.41    c-0.83-4.89-7.47-8.79-11.62-13.11c-3.98,4.03-10.65,7.75-11.17,12.19C451.43,432.58,457.34,437.57,462.71,445.67z M757.97,519.31    c5.54-8,11.55-12.88,11.14-17.16c-0.42-4.44-7.04-8.29-10.95-12.4c-4.22,4.24-10.9,7.99-11.85,12.87    C745.59,506.32,752.16,511.45,757.97,519.31z M610.01,411.03c-5.44,8.06-11.39,13-10.92,17.24c0.49,4.45,7.13,8.22,11.08,12.29    c4.17-4.29,10.82-8.12,11.72-13.01C622.57,423.83,615.92,418.78,610.01,411.03z M683.73,484.59c-5.5,8.02-11.49,12.92-11.05,17.16    c0.46,4.45,7.06,8.28,10.98,12.38c4.21-4.25,10.89-8.03,11.83-12.91C696.19,497.51,689.58,492.41,683.73,484.59z M775,428.87    c-7.73-5.9-12.32-12.13-16.58-11.91c-4.46,0.23-8.6,6.65-12.89,10.36c4.04,4.42,7.49,11.27,12.33,12.45    C761.52,440.66,766.94,434.3,775,428.87z M848.57,427.69c-8.11-5.37-13.11-11.27-17.35-10.77c-4.43,0.52-8.12,7.22-12.14,11.22    c4.33,4.13,8.23,10.73,13.13,11.58C835.92,440.36,840.9,433.66,848.57,427.69z M904.33,445.69c5.89-7.72,12.55-12.76,11.89-16.5    c-0.87-4.88-7.54-8.73-11.71-13.02c-3.95,4.06-10.6,7.83-11.09,12.27C892.96,432.67,898.9,437.62,904.33,445.69z M611.31,484.64    c-6.02,7.62-12.32,12.11-12.17,16.36c0.17,4.48,6.5,8.74,10.13,13.09c4.48-3.97,11.4-7.31,12.66-12.13    C622.88,498.32,616.61,492.79,611.31,484.64z M536.23,484.63c-5.34,8.11-11.23,13.13-10.71,17.35c0.54,4.44,7.22,8.14,11.22,12.16    c4.12-4.34,10.73-8.25,11.57-13.15C548.94,497.28,542.22,492.31,536.23,484.63z M480.66,501.28    c-8.11-5.37-13.11-11.27-17.35-10.77c-4.43,0.52-8.12,7.22-12.14,11.22c4.33,4.13,8.23,10.73,13.13,11.58    C468,513.94,472.98,507.24,480.66,501.28z M737.94,466c-7.24-6.01-12.17-13.09-15.95-12.52c-5,0.76-9.08,7.51-13.56,11.68    c4.05,4.17,7.75,11.13,12.25,11.7C724.97,477.39,730.1,471.26,737.94,466z M795.22,482.28c5.29-7.85,11.81-13.43,10.88-17.15    c-1.23-4.9-8.31-8.34-12.88-12.4c-3.74,4.43-10.31,8.8-10.41,13.32C782.71,470.42,789.26,474.95,795.22,482.28z M885.14,464.72    c-7.71-5.46-13.17-12.13-16.88-11.26c-4.93,1.15-8.5,8.16-12.66,12.65c4.37,3.85,8.59,10.51,13.14,10.73    C873.06,477.06,877.72,470.55,885.14,464.72z M664.41,465.19c-7.56-5.67-12.84-12.49-16.57-11.73c-4.96,1.01-8.72,7.92-13,12.3    c4.25,3.96,8.29,10.73,12.82,11.09C651.97,477.19,656.81,470.82,664.41,465.19z M664.39,317.83c-7.61-5.58-12.48-11.9-16.79-11.55    c-4.53,0.37-8.53,7.15-12.76,11.14c4.31,4.36,8.11,11.24,13.09,12.24C651.64,330.4,656.89,323.54,664.39,317.83z M499.61,482.3    c5.86-7.41,12.37-12.04,12.18-16.39c-0.19-4.55-6.8-8.84-10.6-13.25c-4.51,4.13-11.54,7.67-12.7,12.59    C487.62,469.01,494.21,474.5,499.61,482.3z M573.3,300.84c-5.45,7.74-12.09,13.21-11.22,16.93c1.15,4.95,8.15,8.53,12.64,12.7    c3.82-4.38,10.44-8.63,10.66-13.18C585.58,312.94,579.11,308.28,573.3,300.84z M499.87,335.13c5.75-7.5,12.17-12.22,11.93-16.55    c-0.26-4.56-6.91-8.75-10.77-13.11c-4.45,4.21-11.42,7.86-12.53,12.82C487.66,322.03,494.35,327.44,499.87,335.13z M867.34,374.45    c-5.31,7.82-11.85,13.39-10.93,17.11c1.22,4.9,8.29,8.36,12.85,12.43c3.75-4.43,10.32-8.79,10.44-13.33    C879.82,386.31,873.27,381.77,867.34,374.45z M793.94,408.7c5.86-7.39,12.36-12.01,12.18-16.36c-0.18-4.55-6.78-8.84-10.58-13.25    c-4.51,4.13-11.55,7.67-12.72,12.6C781.94,395.42,788.54,400.93,793.94,408.7z M499.5,521.61c-5.34,7.8-11.91,13.35-11.01,17.07    c1.2,4.92,8.26,8.4,12.8,12.5c3.77-4.42,10.35-8.75,10.5-13.29C511.93,533.53,505.4,528.95,499.5,521.61z M572.95,555.84    c5.95-7.28,12.52-11.8,12.42-16.17c-0.1-4.53-6.67-8.91-10.41-13.36c-4.57,4.06-11.67,7.48-12.9,12.38    C561.14,542.41,567.67,548,572.95,555.84z M664.39,538.77c-7.55-5.67-12.35-12.05-16.66-11.74c-4.54,0.33-8.62,7.06-12.9,10.99    c4.26,4.41,7.99,11.33,12.96,12.39C651.5,551.2,656.82,544.4,664.39,538.77z M720.47,521.59c-5.45,7.74-12.09,13.21-11.22,16.93    c1.15,4.95,8.15,8.53,12.64,12.7c3.82-4.38,10.44-8.63,10.66-13.18C732.75,533.69,726.28,529.03,720.47,521.59z M811.55,538.56    c-7.62-5.57-12.99-12.33-16.69-11.51c-4.96,1.1-8.64,8.05-12.86,12.48c4.31,3.9,8.44,10.6,12.99,10.89    C799.31,550.71,804.06,544.28,811.55,538.56z M868.67,521.6c-5.89,7.35-12.42,11.93-12.28,16.3c0.15,4.54,6.75,8.86,10.53,13.28    c4.53-4.11,11.58-7.61,12.77-12.53C880.59,534.93,874.02,529.4,868.67,521.6z M737.97,391.3c-7.65-5.53-13.06-12.26-16.75-11.42    c-4.96,1.13-8.59,8.1-12.8,12.56c4.33,3.88,8.51,10.56,13.05,10.82C725.79,403.52,730.51,397.06,737.97,391.3z M664.36,392.19    c-7.32-5.91-11.88-12.47-16.22-12.33c-4.53,0.15-8.84,6.76-13.25,10.55c4.09,4.55,7.57,11.61,12.49,12.83    C651.06,404.16,656.61,397.55,664.36,392.19z M574.1,374.42c-5.8,7.46-12.27,12.14-12.04,16.48c0.23,4.56,6.87,8.79,10.7,13.17    c4.47-4.19,11.46-7.8,12.6-12.75C586.21,387.59,579.56,382.14,574.1,374.42z M517.22,391.41c-7.61-5.58-12.48-11.9-16.79-11.55    c-4.53,0.37-8.53,7.15-12.76,11.14c4.31,4.36,8.11,11.24,13.09,12.24C504.48,403.99,509.72,397.12,517.22,391.41z M885.13,318.37    c-7.41-5.82-12.08-12.31-16.4-12.09c-4.55,0.23-8.77,6.88-13.14,10.73c4.17,4.49,7.75,11.49,12.71,12.66    C871.98,330.53,877.44,323.84,885.13,318.37z M811.56,318.09c-7.52-5.69-12.29-12.1-16.61-11.81c-4.54,0.31-8.65,7.02-12.95,10.93    c4.24,4.42,7.94,11.36,12.91,12.44C798.61,330.47,803.96,323.69,811.56,318.09z M737.98,318.02    c-7.55-5.67-12.35-12.05-16.66-11.74c-4.54,0.33-8.62,7.06-12.9,10.99c4.26,4.41,7.99,11.33,12.96,12.39    C725.08,330.45,730.4,323.65,737.98,318.02z M590.77,466c-7.24-6.01-12.17-13.09-15.95-12.52c-5,0.76-9.08,7.51-13.56,11.68    c4.05,4.17,7.75,11.13,12.25,11.7C577.81,477.39,582.94,471.26,590.77,466z"/><path data-cppathid="10067" d="M781.49,213.5c0.13,10.43-7.23,17.88-17.73,17.92c-10.43,0.04-18.18-7.45-18.3-17.67c-0.1-9.25,8.78-18.26,18.12-18.36    C773.62,195.26,781.36,203.1,781.49,213.5z"/><path data-cppathid="10068" d="M886.79,231.43c-10.56,0.17-18.33-7.03-18.68-17.32c-0.31-9.23,8.44-18.47,17.75-18.74c9.9-0.28,17.98,7.59,18.27,17.79    C904.43,223.7,897.24,231.27,886.79,231.43z"/><path data-cppathid="10069" d="M482.15,195.38c9.26,0.22,18.06,9.38,17.93,18.67c-0.14,9.93-8.26,17.5-18.66,17.39c-10.49-0.12-17.58-7.55-17.36-18.18    C464.28,202.97,472.2,195.14,482.15,195.38z"/><path data-cppathid="10070" d="M702.51,195.39c9.29,0,18.22,8.9,18.32,18.27c0.11,9.83-7.99,17.71-18.28,17.77c-10.56,0.07-17.78-7.18-17.74-17.8    C684.86,203.22,692.45,195.39,702.51,195.39z"/><path data-cppathid="10071" d="M825.34,231.44c-10.58,0.14-17.86-7.05-17.88-17.66c-0.02-10.48,7.43-18.29,17.55-18.39c9.27-0.09,18.27,8.75,18.47,18.13    C843.68,223.32,835.59,231.31,825.34,231.44z"/><path data-cppathid="10072" d="M525.64,195.96c7.48,0,14.55,0,22.6,0c0,11.38,0,22.79,0,34.88c-7.48,0-14.56,0-22.6,0    C525.64,219.43,525.64,208.01,525.64,195.96z"/><path data-cppathid="10073" d="M597.44,231c-7.92,0-14.99,0-22.88,0c0-11.58,0-22.66,0-34.71c7.29,0,14.66,0,22.88,0    C597.44,207.3,597.44,218.36,597.44,231z"/><path data-cppathid="10074" d="M623.55,195.88c8.12,0,15.19,0,23.01,0c0,11.58,0,22.64,0,34.67c-7.52,0-14.87,0-23.01,0    C623.55,219.27,623.55,208.19,623.55,195.88z"/></g></g><g id="Layer_1_00000069398409169589572580000003443996114688890274_"><g><path data-cppathid="10075" d="M929.86,158.46c0,143.64,0,287.28,0,430.91c-3.77,7.62-10.11,9.64-18.26,9.63    c-153.66-0.14-307.33-0.1-460.99-0.1c-13.28,0-17.65-4.42-17.65-17.79c0-138.14,0-276.27,0-414.41c0-1.46-0.04-2.91,0.02-4.37    c0.31-7.17,4.73-12.14,11.82-13.17c1.91-0.27,3.87-0.24,5.81-0.24c153.83-0.01,307.65,0.03,461.47-0.11    C920.12,148.82,926.16,151.12,929.86,158.46z M447.66,583.96c156.11,0,311.75,0,467.32,0c0-113.85,0-227.32,0-341.1    c-2.24,0-4.16,0-6.07,0c-69.07,0-138.13,0-207.2-0.01c-1.78,0-3.61,0.17-5.32-0.17c-3.95-0.8-6.39-3.23-6.2-7.42    c0.18-4.14,2.63-6.47,6.74-6.9c1.6-0.17,3.23-0.06,4.85-0.06c69.23,0,138.46,0,207.68,0c1.87,0,3.73,0,5.49,0    c0-21.97,0-43.22,0-64.54c-155.89,0-311.42,0-467.19,0c0,21.53,0,42.79,0,64.54c2.12,0,4.02,0,5.92,0c68.74,0,137.49,0,206.23,0    c7.64,0,10.9,2.12,10.96,7.11c0.06,5.14-3.4,7.45-11.22,7.45c-68.74,0-137.49,0-206.23,0c-1.87,0-3.74,0-5.75,0    C447.66,356.87,447.66,470.23,447.66,583.96z" class="st2"/><path data-cppathid="10076" d="M747.84,335.08c0.02-36.46,29.63-65.99,66.12-65.93c36.29,0.06,65.59,29.41,65.66,65.79    c0.08,36.63-29.26,66.12-65.77,66.14C777.37,401.11,747.82,371.56,747.84,335.08z M773.13,304.61    c-15.95,17.25-13.56,49.21,4.53,67.05c19.79,19.51,51.04,19.87,71.41,0.84c20.05-18.74,21.48-50.58,3.19-71.4    c-17.55-19.97-49.07-23.25-69.93-6.14c2.19,1.64,4.46,2.98,6.29,4.77c7.17,7,14.28,14.07,21.25,21.28    c3.29,3.4,3.22,7.39,0.3,10.38c-2.8,2.87-7.03,2.88-10.45-0.08c-1.34-1.16-2.55-2.48-3.8-3.74    C788.32,319.92,780.73,312.27,773.13,304.61z" class="st2"/><path data-cppathid="10077" d="M703.85,381.13c0-1.91,0-3.83,0-5.75c0-31.69,0-63.38,0.01-95.07c0-1.77-0.1-3.6,0.3-5.3    c0.88-3.75,3.43-5.97,7.31-5.76c4.05,0.22,6.56,2.61,6.86,6.78c0.2,2.9,0.08,5.82,0.08,8.73c0,30.56,0.04,61.12-0.05,91.67    c-0.01,3.19,0.59,4.95,3.97,6.47c10.48,4.72,16.23,13.17,16.32,24.79c0.09,11.82-5.59,20.46-16.27,25.3    c-3.34,1.51-4.03,3.25-4.02,6.48c0.08,35.57,0.05,71.14,0.05,106.71c0,1.62,0.06,3.24-0.07,4.85c-0.33,3.92-2.53,6.3-6.41,6.68    c-4.15,0.41-6.8-1.78-7.79-5.72c-0.42-1.69-0.27-3.53-0.27-5.31c-0.01-35.57-0.05-71.14,0.05-106.71c0.01-3.53-0.6-5.51-4.36-7.2    c-10.35-4.66-15.82-13.32-15.88-24.61c-0.06-11.49,5.58-19.97,15.9-25.19C700.85,382.3,702.22,381.82,703.85,381.13z     M724.15,408.14c0.09-7.24-5.44-12.97-12.65-13.09c-7.42-0.13-13.41,5.68-13.37,12.96c0.04,7.06,5.92,12.9,13,12.94    C718.26,420.99,724.06,415.28,724.15,408.14z" class="st2"/><path data-cppathid="10078" d="M652.29,368.65c0,2.27,0,4.2,0,6.13c0,57.26,0,114.52-0.01,171.78c0,1.78,0.18,3.61-0.19,5.32    c-0.81,3.79-3.35,5.92-7.23,5.87c-3.67-0.04-6.07-2.17-6.9-5.7c-0.4-1.7-0.22-3.54-0.22-5.32c-0.01-57.42-0.01-114.84-0.01-172.27    c0-1.93,0-3.86,0-5.87c-9.95-3.55-16.84-9.86-19.43-20.12c-3.34-13.21,3.13-26.41,15.77-31.88c2.78-1.2,3.81-2.51,3.75-5.61    c-0.22-10.83-0.11-21.67-0.08-32.51c0.02-5.95,2.83-9.43,7.43-9.32c4.43,0.1,7.09,3.46,7.11,9.15c0.03,11,0.02,22,0.01,33    c0,2.1-0.1,3.71,2.63,4.84c11.43,4.72,17.74,13.53,17.6,25.93c-0.15,12.62-6.88,21.17-18.55,25.85    C653.51,368.11,653.08,368.31,652.29,368.65z M644.96,328.78c-7.11,0.04-12.95,5.86-12.99,12.95    c-0.04,7.32,5.92,13.11,13.35,12.98c7.18-0.13,12.85-5.96,12.75-13.1C657.95,334.51,652.06,328.75,644.96,328.78z" class="st2"/><path data-cppathid="10079" d="M571.62,444.35c-12.42-4.78-19.98-13.1-20.23-26.51c-0.22-11.82,5.46-20.49,16.13-25.37    c3.49-1.6,4.18-3.44,4.17-6.89c-0.12-34.92-0.07-69.85-0.07-104.77c0-1.62-0.09-3.24,0.07-4.85c0.41-4.15,2.88-6.54,6.93-6.72    c3.88-0.17,6.4,2.08,7.27,5.83c0.39,1.7,0.28,3.53,0.28,5.3c0.01,35.09,0.05,70.17-0.06,105.26c-0.01,3.41,0.61,5.27,4.14,6.86    c10.55,4.74,16.12,13.47,16.11,24.95s-5.63,20.13-16.14,24.97c-3.15,1.45-4.14,2.99-4.13,6.35c0.12,32.82,0.08,65.64,0.05,98.47    c0,1.91-0.05,3.93-0.62,5.72c-1.13,3.52-3.86,5.14-7.5,4.75c-3.66-0.39-5.85-2.59-6.31-6.26c-0.22-1.75-0.1-3.55-0.1-5.33    C571.62,512.31,571.62,478.52,571.62,444.35z M579.06,430.35c7.12-0.1,12.92-5.97,12.86-13.03c-0.06-7.01-6.02-12.93-13.05-12.95    c-7.26-0.02-13.14,6.04-12.99,13.39C566.03,424.93,571.81,430.45,579.06,430.35z" class="st2"/><path data-cppathid="10080" d="M520.02,366.61c0,29.27,0.04,58.53-0.06,87.8c-0.01,2.94,0.7,4.49,3.61,5.78    c10.8,4.78,16.46,13.4,16.46,25.17c0,11.6-5.73,20.06-16.19,24.89c-3.06,1.41-3.95,2.92-3.9,6.09    c0.18,10.99,0.15,21.99,0.03,32.98c-0.06,5.7-3.52,9.09-8.28,8.36c-4.43-0.68-6.23-3.61-6.23-7.88c0-11.16-0.14-22.32,0.07-33.47    c0.06-3.23-0.96-4.63-3.95-6.02c-10.42-4.83-16.22-13.15-16.31-24.81c-0.09-11.64,5.43-20.2,15.89-25.03    c3.67-1.7,4.35-3.72,4.35-7.29c-0.09-57.08-0.06-114.15-0.06-171.23c0-1.13-0.01-2.26,0-3.4c0.08-6.04,2.77-9.47,7.33-9.38    c4.55,0.09,7.2,3.53,7.21,9.63C520.03,308.08,520.02,337.34,520.02,366.61z M525.54,485.04c-0.11-7.14-6.01-12.88-13.11-12.74    c-7.12,0.14-12.73,6-12.63,13.18c0.1,7.2,5.86,12.78,13.07,12.68C520.01,498.06,525.66,492.21,525.54,485.04z" class="st2"/><path data-cppathid="10081" d="M864.76,444.52c-10.96,0-21.6,0.01-32.24-0.01c-1.77,0-3.59,0.07-5.31-0.28c-4.01-0.81-6.31-3.34-6.04-7.52    c0.27-4.14,2.76-6.63,6.9-6.66c13.58-0.11,27.17-0.18,40.75,0.08c5.89,0.11,10.48,4.65,10.64,10.57    c0.3,10.99,0.32,21.99,0.01,32.98c-0.18,6.5-5.12,10.79-11.93,10.89c-10.51,0.15-21.02,0.06-31.54,0.06    c-24.58,0-49.16,0.02-73.75-0.01c-10.04-0.01-14.42-4.38-14.49-14.51c-0.06-8.73-0.09-17.47,0.01-26.2    c0.11-9.57,4.5-13.89,14.03-13.94c10.35-0.05,20.7-0.04,31.05,0c5.93,0.03,8.96,2.49,8.98,7.12c0.02,4.62-3.09,7.34-8.86,7.4    c-10.01,0.09-20.01,0.03-30.34,0.03c0,8.59,0,16.76,0,25.24c34.01,0,67.88,0,102.12,0C864.76,461.59,864.76,453.44,864.76,444.52z    " class="st2"/><path data-cppathid="10082" d="M775.43,505.84c5,0.01,10.01-0.1,15,0.03c7.38,0.19,12.21,4.82,12.36,12.07c0.18,8.22,0.17,16.46,0,24.68    c-0.15,7.12-4.75,11.81-11.9,11.95c-10.32,0.21-20.65,0.2-30.97,0c-6.95-0.13-11.57-4.53-11.83-11.5c-0.32-8.54-0.33-17.1,0-25.64    c0.27-7.06,5.16-11.32,12.34-11.59c0.32-0.01,0.65-0.01,0.97-0.01C766.08,505.83,770.76,505.83,775.43,505.84z M787.95,539.87    c0-6.81,0-13,0-19.08c-8.65,0-16.93,0-25.07,0c0,6.6,0,12.79,0,19.08C771.44,539.87,779.59,539.87,787.95,539.87z" class="st2"/><path data-cppathid="10083" d="M852.19,554.63c-5.18,0-10.36,0.15-15.53-0.04c-6.96-0.25-11.62-4.64-11.85-11.55    c-0.27-8.56-0.28-17.15,0.02-25.71c0.24-6.82,5.07-11.33,11.98-11.44c10.19-0.16,20.38-0.17,30.57,0    c7.31,0.12,12,4.91,12.15,12.31c0.16,8.08,0.17,16.18-0.01,24.26c-0.16,7.38-4.81,11.91-12.29,12.15    c-5.01,0.16-10.03,0.03-15.04,0.03C852.19,554.64,852.19,554.64,852.19,554.63z M864.85,520.79c-8.83,0-17.1,0-25.22,0    c0,6.6,0,12.79,0,18.91c8.66,0,16.92,0,25.22,0C864.85,533.19,864.85,527.1,864.85,520.79z" class="st2"/><path data-cppathid="10084" d="M652.26,194.87c0.08,3.86-2.99,7.13-6.87,7.32c-4.12,0.2-7.55-2.97-7.62-7.04c-0.07-4.01,3.36-7.48,7.34-7.42    C648.91,187.79,652.19,191.06,652.26,194.87z" class="st2"/><path data-cppathid="10085" d="M519.92,194.89c0.06,3.84-3.03,7.11-6.9,7.29c-4.18,0.19-7.44-2.88-7.49-7.06c-0.05-4.11,3.26-7.48,7.26-7.4    C516.56,187.8,519.86,191.12,519.92,194.89z" class="st2"/><path data-cppathid="10086" d="M571.66,194.9c0.05-3.88,3.19-7.1,7.02-7.19c3.94-0.09,7.49,3.42,7.43,7.36c-0.06,4.03-3.53,7.26-7.61,7.1    C574.58,202.02,571.61,198.86,571.66,194.9z" class="st2"/><path data-cppathid="10087" d="M718.36,195.16c-0.07,4.14-3.39,7.24-7.54,7.04c-3.86-0.18-6.99-3.49-6.9-7.3c0.08-3.74,3.44-7.09,7.17-7.15    C715.09,187.67,718.43,191.08,718.36,195.16z" class="st2"/></g></g><g class="st0" id="Layer_3"><path data-cppathid="10088" d="M973,503.12c-2.49,11.74-4.38,23.66-7.62,35.2c-6.09,21.7-16.99,41-31.43,58.3   c-5.21,6.24-10.46,7.39-15.2,3.43c-4.61-3.85-4.4-9.48,0.57-15.65c46.34-57.49,46.22-132.86-0.29-190.74   c-4.69-5.84-4.84-11.35-0.42-15.18c4.75-4.12,9.98-3.11,15.21,3.17c21.3,25.59,33.95,54.92,37.98,87.99   c0.23,1.85,0.79,3.66,1.2,5.49C973,484.46,973,493.79,973,503.12z" class="st1"/><path data-cppathid="10089" d="M451.07,375.89c0-79.3-0.05-158.6,0.02-237.91c0.03-33.64,18.11-59.96,48.61-69.94   c7.51-2.46,15.76-3.7,23.68-3.72c82.69-0.26,165.39-0.27,248.08-0.11c41.16,0.08,71.95,31.01,71.97,72.13   c0.08,159.03,0.09,318.06,0.04,477.08c-0.01,43.94-30.48,74.16-74.5,74.18c-57.89,0.03-115.77,0.01-173.66,0   c-2.12,0-4.31,0.23-6.34-0.23c-4.88-1.1-7.86-4.22-7.82-9.39c0.04-5.17,3.06-8.23,7.96-9.26c2.04-0.43,4.22-0.19,6.34-0.19   c58.73-0.01,117.47,0.07,176.2-0.05c25.97-0.05,46.7-16.96,51.78-42.02c0.87-4.32,0.93-8.85,0.93-13.28   c0.02-158.82,0.01-317.63-0.04-476.45c-0.01-31.04-22.21-53.42-53.22-53.45c-82.48-0.09-164.97-0.08-247.45,0   c-31.05,0.03-53.43,22.16-53.45,53.28c-0.11,159.45-0.1,318.9-0.01,478.36c0.02,31.49,22.33,53.45,53.8,53.61   c7,0.03,14-0.1,20.99,0.04c6.36,0.13,10.56,4.03,10.57,9.48c0.01,5.46-4.2,9.71-10.52,9.47c-13.71-0.52-27.79,0.19-41.03-2.72   c-30.26-6.64-52.41-34.29-52.67-65.27c-0.53-64.24-0.24-128.49-0.28-192.74C451.06,409.82,451.07,392.86,451.07,375.89z" class="st1"/><path data-cppathid="10090" d="M650.64,362.38c70.74,2.73,126.3,61.45,123.48,130.49c-2.9,70.69-61.44,125.8-130.84,123.17   c-70.03-2.66-125.55-61.65-122.84-130.53C523.2,415.18,581.84,359.73,650.64,362.38z M644.5,381.44   c-60.16,2.34-107.3,52.1-104.99,110.85c2.35,59.95,52.31,106.98,111.18,104.68c59.52-2.33,106.73-52.49,104.36-110.86   C752.61,426.26,702.87,379.17,644.5,381.44z" class="st1"/><path data-cppathid="10091" d="M647.11,318.53c-48.55-0.08-88.74-38.54-91.2-87.28c-2.4-47.58,33.43-89.95,81.04-94.7   c38.14-3.81,67.58,11.41,88.53,43.35c3.08,4.69,4.11,9.43-0.16,13.9c-4.63,4.84-11.58,3.36-15.78-3.47   c-11.02-17.89-26.69-29.23-47.17-33.88c-38.85-8.83-78.97,17.78-86.12,57.08c-7.34,40.29,20.02,79.19,59.66,84.83   c41.9,5.96,77.73-21.28,83.1-63.19c0.24-1.89,0.4-3.8,0.66-5.69c0.84-6.07,4.59-9.38,10.17-8.99c5.33,0.38,9.42,4.53,8.67,10.47   c-1.14,8.99-2.31,18.19-5.23,26.7C720.74,294.14,685.68,318.59,647.11,318.53z" class="st1"/><path data-cppathid="10092" d="M321.48,487.41c0.69-39.08,13.63-75.2,39.81-106.42c5.43-6.47,12.64-6.6,16.41-0.42   c3.03,4.97,1.13,9.2-2.27,13.27c-17.22,20.59-28.29,44.08-32.58,70.61c-7.09,43.83,3.59,83.09,30.79,118.01   c1.17,1.5,2.51,2.89,3.57,4.46c3.08,4.58,2.45,9.91-1.43,13.13c-4.01,3.33-9.41,3.21-13.07-1.09c-4.8-5.62-9.37-11.51-13.44-17.68   C330.82,553.32,321.82,522.45,321.48,487.41z" class="st1"/><path data-cppathid="10093" d="M963.73,227.74c0.17,31.54-12.48,61.8-36.98,87.22c-4.49,4.66-10.05,4.82-14.07,0.91   c-4.18-4.06-4-9.43,0.9-14.61c14.6-15.44,24.86-33.23,28.87-54.19c6.75-35.25-3.54-65.66-27-92.13c-1.12-1.27-2.41-2.41-3.42-3.76   c-3.34-4.47-3-9.79,0.99-13.11c4.17-3.47,8.69-3.57,12.62,0.17c3.67,3.49,7.04,7.35,10.19,11.32   C953.1,171.3,962.56,196,963.73,227.74z" class="st1"/><path data-cppathid="10094" d="M375.44,134.19c3.12,2.32,6.85,3.73,7.97,6.29c1.23,2.81,0.76,6.92-0.32,10c-0.9,2.59-3.76,4.47-5.7,6.72   c-36.85,42.62-36.03,100.57,1.99,142.08c1.14,1.25,2.4,2.42,3.41,3.77c3.35,4.48,3.01,9.77-1.01,13.1   c-4.18,3.46-8.76,3.59-12.61-0.22c-4.36-4.3-8.46-8.94-12.17-13.81c-37.66-49.5-33.58-116.88,9.78-161.51   C369.03,138.29,372.02,136.69,375.44,134.19z" class="st1"/><path data-cppathid="10095" d="M359.64,489.14c0.45-30.2,9.84-57.08,28.43-80.73c1.18-1.5,2.38-3,3.76-4.31c3.94-3.72,8.3-4.08,12.65-0.86   c4.15,3.07,4.8,8.47,1.76,13.06c-0.93,1.41-2.15,2.62-3.2,3.95c-32.45,41.01-32.35,97.3,0.22,138.16c1.06,1.32,2.27,2.56,3.15,3.99   c2.83,4.62,2.41,9.09-1.75,12.54c-4.13,3.43-8.69,3.22-12.62-0.52c-2.28-2.18-4.21-4.76-6.11-7.3   C368.54,543.99,360.02,517.87,359.64,489.14z" class="st1"/><path data-cppathid="10096" d="M934.92,488.91c-0.4,30.37-9.8,57.47-28.6,81.25c-1.44,1.82-2.9,3.76-4.74,5.1c-3.85,2.81-8.03,2.8-11.7-0.3   c-3.64-3.08-4.56-7.08-2.31-11.43c0.86-1.67,2.15-3.14,3.33-4.62c33.1-41.39,33.2-97.75,0.25-139.18   c-1.31-1.65-2.78-3.26-3.69-5.13c-2.15-4.39-1.38-9.05,2.74-11.12c3.04-1.53,7.47-1.09,11.07-0.41c1.85,0.35,3.36,3.05,4.81,4.86   C924.95,431.65,934.42,458.72,934.92,488.91z" class="st1"/><path data-cppathid="10097" d="M647.45,263.91c-20.2,0.08-36.92-16.47-37-36.64s16.5-36.93,36.65-37.03c20.15-0.1,36.92,16.52,37.01,36.68   C684.2,247.12,667.64,263.83,647.45,263.91z M665,227c-0.06-9.69-8.33-17.8-17.98-17.63c-9.44,0.17-17.34,8.09-17.45,17.52   c-0.12,9.67,7.97,17.87,17.66,17.9C656.93,244.82,665.05,236.69,665,227z" class="st1"/><path data-cppathid="10098" d="M929.37,227.24c-0.58,26.18-10.15,48.63-28.17,67.51c-4.47,4.68-10.04,5.21-14.1,1.67   c-4.32-3.76-4.48-9.61,0.15-14.59c12.32-13.26,20.4-28.48,22.39-46.66c2.5-22.88-5.01-42.48-19.63-59.73   c-0.96-1.13-2.05-2.15-3-3.28c-4.14-4.94-4.18-10.38-0.15-14.16c3.97-3.72,9.67-3.39,14.09,1.2   C919.22,178.19,928.85,200.82,929.37,227.24z" class="st1"/><path data-cppathid="10099" d="M402.03,153.97c3.08,2.61,6.85,4.27,7.6,6.81c0.92,3.14,0.34,7.63-1.38,10.45   c-4.38,7.18-10.62,13.3-14.57,20.67c-15.14,28.26-10.98,60.88,10.25,85.81c1.24,1.45,2.58,2.81,3.8,4.27   c4.08,4.87,4.18,10.54,0.27,14.21c-3.94,3.69-9.72,3.35-14.12-1.17c-12.21-12.52-21.04-27.13-25.18-44.16   c-8.42-34.66,0.51-64.88,24.48-90.86C395.3,157.7,398.47,156.35,402.03,153.97z" class="st1"/><path data-cppathid="10100" d="M397.84,489.18c0.36-21.67,7.17-41.05,20.89-57.95c4.45-5.48,9.7-6.65,14.3-3.28   c4.87,3.57,5.13,9.05,0.72,15.01c-22.51,30.36-22.52,62.22-0.03,92.45c4.44,5.96,4.19,11.43-0.67,15.01   c-4.66,3.44-9.78,2.33-14.29-3.22C405.05,530.32,398.21,510.94,397.84,489.18z" class="st1"/><path data-cppathid="10101" d="M896.72,489.11c-0.37,21.82-7.21,41.2-20.92,58.08c-4.67,5.75-10.15,6.75-14.79,2.84   c-4.46-3.75-4.52-8.79-0.17-14.61c22.47-30.1,22.47-62.28-0.01-92.45c-4.44-5.96-4.19-11.42,0.69-15.01   c4.6-3.38,9.85-2.23,14.3,3.25C889.54,448.11,896.34,467.49,896.72,489.11z" class="st1"/><path data-cppathid="10102" d="M399.98,226.38c0.26-18.21,7.09-33.72,19.38-46.94c4.83-5.2,10.12-5.75,14.46-1.78   c4.3,3.93,4.14,9.21-0.43,14.61c-19.46,22.99-19.42,46.49,0.12,69.78c4.52,5.39,4.58,10.72,0.18,14.59   c-4.23,3.72-9.47,3.26-14.01-1.55C406.81,261.43,399.89,245.31,399.98,226.38z" class="st1"/><path data-cppathid="10103" d="M894.97,227.29c-0.18,17.77-6.83,34.01-19.72,47.68c-4.6,4.88-9.67,5.42-13.98,1.75   c-4.38-3.72-4.56-9.5-0.02-14.56c13.85-15.49,18.71-33,10.98-52.71c-2.41-6.14-6.78-11.61-10.79-16.99   c-4.16-5.59-4.67-10.83-0.53-14.7c4.47-4.18,9.73-3.5,14.88,2.06C887.93,192.91,894.38,208.37,894.97,227.29z" class="st1"/><path data-cppathid="10104" d="M647.12,398.09c50.03-0.16,91.01,40.59,91.31,90.79c0.3,50.11-41.15,91.65-91.32,91.51   c-50.03-0.14-90.99-41.19-91-91.2C556.12,439.14,596.95,398.25,647.12,398.09z M648.05,417.23c-39.1-0.89-71.9,31.19-72.8,71.21   c-0.88,38.99,31.58,72.17,71.26,72.86c39.16,0.68,72.11-31.59,72.83-71.33C720.05,450.73,688.1,418.14,648.05,417.23z" class="st1"/><path data-cppathid="10105" d="M647,454.43c19.37-0.13,34.84,15.01,35.07,34.32c0.23,19.55-15.31,35.29-34.83,35.27   c-19.26-0.02-34.67-15.42-34.75-34.71C612.41,470,627.68,454.56,647,454.43z M662.92,489.35c0.08-8.88-6.63-15.72-15.49-15.79   c-8.89-0.07-15.73,6.62-15.8,15.47c-0.07,8.86,6.67,15.76,15.48,15.84C655.93,504.95,662.84,498.17,662.92,489.35z" class="st1"/></g><g class="st0" id="Layer_7"><g class="st1"><path data-cppathid="10106" d="M708.87,384.71c24.3-4.52,45.74-14.95,63.97-31.53c30.01-27.31,44.92-61.51,45.62-102.01    c0.2-11.89,8.06-21.57,18.99-23.51c11.38-2.02,22.42,4.05,26.26,14.84c1.09,3.06,1.61,6.53,1.49,9.77    c-2.72,75.55-37.97,130.52-105,165.18c-3.42,1.77-4.8,3.46-4.78,7.4c0.16,38.87,0.1,77.74,0.1,116.61c0,1.87,0,3.75,0,5.93    c-48.23,0-96.04,0-144.36,0c0-2.06,0-3.92,0-5.78c0-38.87-0.05-77.74,0.08-116.61c0.01-3.81-1.04-5.69-4.63-7.49    c-61.27-30.76-96.15-80.21-104.29-148.35c-0.71-5.97-0.89-12.03-0.88-18.04c0.04-13.54,10.15-23.76,23.24-23.81    c13.08-0.06,23.33,10.1,23.51,23.6c0.45,34.87,11.78,65.6,35.01,91.68c19.26,21.62,43.23,35.44,71.46,41.86    c1.05,0.24,2.14,0.33,3.38,0.2c-15.71-7.26-27.59-18.35-34.79-34.08c-7.23-15.8-8.22-32.11-3.05-48.7    c8.95-28.68,35.88-47.64,65.79-46.42c29.52,1.2,55.02,22.28,61.84,51.14C754.53,334.94,742.82,368.68,708.87,384.71z"/><path data-cppathid="10107" d="M956.03,384.53c16.77-2.99,32.33-9.08,46.42-18.53c39.35-26.4,59.87-63.54,62.39-110.76c0.19-3.47,0.06-7.05,0.88-10.39    c2.89-11.71,13.84-18.87,25.97-17.34c11.39,1.43,20.31,11.43,19.97,23.54c-2.15,75.74-36.9,131.18-104.23,165.98    c-4.07,2.1-5.68,4.11-5.65,8.82c0.22,38.39,0.13,76.78,0.13,115.16c0,2.03,0,4.06,0,6.39c-48.18,0-95.85,0-144.23,0    c0-1.85,0-3.69,0-5.53c0-39.02-0.05-78.05,0.08-117.07c0.01-3.63-0.87-5.55-4.4-7.14c-14.68-6.61-28.08-15.31-40.11-25.66    c10-11.97,19.92-23.83,30.13-36.05c17.28,14.18,37.27,24.31,60.01,28.55c-39.15-19.78-44.64-58.5-36.9-82.42    c9.2-28.47,35.61-47.48,65.28-46.67c29.36,0.8,54.67,21.25,62.19,50.02C1000.38,330.05,993.27,366.08,956.03,384.53z"/><path data-cppathid="10108" d="M410.17,384.74c-37.5-19.27-44.34-56.28-36.89-81.58c8.45-28.65,34.54-48.02,64.4-47.73    c29.32,0.28,55.26,20.62,62.9,49.07c7.36,27.39-2.36,62.6-37.15,80.44c5.27-1.45,10.64-2.65,15.8-4.43    c5.38-1.86,10.69-4.03,15.81-6.52s10.09-5.35,14.9-8.4c4.79-3.04,9.29-6.53,13.48-9.5c9.9,11.88,19.72,23.67,30.22,36.28    c-0.47,0.31-1.6,1.09-2.76,1.82c-12.17,7.69-24.2,15.61-36.6,22.91c-3.67,2.16-5.44,3.95-5.42,8.49    c0.21,38.71,0.12,77.41,0.12,116.12c0,1.73,0,3.45,0,5.6c-48.08,0-95.88,0-144.49,0c0-1.67,0-3.48,0-5.3    c0-39.18-0.05-78.37,0.08-117.55c0.01-3.53-1.13-5.15-4.27-6.76c-67.37-34.54-102.72-89.62-105.29-165.39    c-0.49-14.51,9.54-24.95,22.89-25c13.74-0.06,23.46,10.17,23.66,24.89c0.86,63.94,43.91,117.67,105.87,132.1    C408.33,384.5,409.26,384.59,410.17,384.74z"/><path data-cppathid="10109" d="M772.28,342.79c-12.67-22.08-20.28-45.09-23.13-69.64c-0.8-6.92-1.13-13.91-1.28-20.88    c-0.29-14.16,9.68-24.83,23.04-24.98c13.46-0.15,23.61,10.18,23.76,24.33c0.15,14.21,2.29,28.08,6.59,41.64    c0.49,1.55,0.84,3.54,0.29,4.96C795.1,315.02,785.43,329.73,772.28,342.79z"/><path data-cppathid="10110" d="M593.79,343.74c-6.9-9.4-13.35-18.11-19.7-26.9c-1.29-1.78-2.07-3.93-3.25-5.8c-5.22-8.25-6.48-16.32-3.43-26.3    c3.19-10.42,3.78-21.79,4.41-32.81c0.82-14.25,10.18-24.63,23.57-24.64s23.29,10.45,23.2,24.77    c-0.18,30.32-7.15,58.97-21.45,85.78C596.34,339.36,595.44,340.84,593.79,343.74z"/></g></g></svg>